<svg xmlns="http://www.w3.org/2000/svg" viewBox="0 0 1568 448" width="1568" height="448">
	<defs>
		<linearGradient id="grd1" gradientUnits="userSpaceOnUse"  x1="200" y1="336" x2="0" y2="336">
			<stop offset="0" stop-color="#00aeff"  />
			<stop offset="1" stop-color="#3369e6"  />
		</linearGradient>
		<linearGradient id="grd2" gradientUnits="userSpaceOnUse"  x1="322" y1="384" x2="0" y2="384">
			<stop offset="0" stop-color="#00aeff"  />
			<stop offset="1" stop-color="#3369e6"  />
		</linearGradient>
		<linearGradient id="grd3" gradientUnits="userSpaceOnUse"  x1="120" y1="416" x2="0" y2="416">
			<stop offset="0" stop-color="#00aeff"  />
			<stop offset="1" stop-color="#3369e6"  />
		</linearGradient>
		<linearGradient id="grd4" gradientUnits="userSpaceOnUse"  x1="326" y1="80" x2="0" y2="80">
			<stop offset="0" stop-color="#00aeff"  />
			<stop offset="1" stop-color="#3369e6"  />
		</linearGradient>
		<linearGradient id="grd5" gradientUnits="userSpaceOnUse"  x1="226" y1="32" x2="0" y2="32">
			<stop offset="0" stop-color="#00aeff"  />
			<stop offset="1" stop-color="#3369e6"  />
		</linearGradient>
		<linearGradient id="grd6" gradientUnits="userSpaceOnUse"  x1="100" y1="0" x2="0" y2="0">
			<stop offset="0" stop-color="#00aeff"  />
			<stop offset="1" stop-color="#3369e6"  />
		</linearGradient>
		<linearGradient id="grd7" gradientUnits="userSpaceOnUse"  x1="1439" y1="224" x2="0" y2="224">
			<stop offset="0" stop-color="#8e43e6"  />
			<stop offset="1" stop-color="#3369e6"  />
		</linearGradient>
		<linearGradient id="grd8" gradientUnits="userSpaceOnUse"  x1="1520" y1="193.463" x2="0" y2="192.783">
			<stop offset="0" stop-color="#00aeff"  />
			<stop offset="0.346" stop-color="#3369e6"  />
			<stop offset="1" stop-color="#913fe6"  />
		</linearGradient>
		<linearGradient id="grd9" gradientUnits="userSpaceOnUse"  x1="935" y1="192" x2="0" y2="192">
			<stop offset="0" stop-color="#00aeff"  />
			<stop offset="1" stop-color="#3369e6"  />
		</linearGradient>
		<linearGradient id="grd10" gradientUnits="userSpaceOnUse"  x1="1358" y1="160.783" x2="0" y2="160.783">
			<stop offset="0" stop-color="#00aeff"  />
			<stop offset="0.346" stop-color="#3369e6"  />
			<stop offset="1" stop-color="#913fe6"  />
		</linearGradient>
		<linearGradient id="grd11" gradientUnits="userSpaceOnUse"  x1="1568" y1="160.783" x2="29.886" y2="160.783">
			<stop offset="0" stop-color="#00aeff"  />
			<stop offset="0.346" stop-color="#3369e6"  />
			<stop offset="1" stop-color="#913fe6"  />
		</linearGradient>
		<linearGradient id="grd12" gradientUnits="userSpaceOnUse"  x1="1439" y1="128.783" x2="31.183" y2="128.783">
			<stop offset="0" stop-color="#00aeff"  />
			<stop offset="0.346" stop-color="#3369e6"  />
			<stop offset="1" stop-color="#913fe6"  />
		</linearGradient>
		<linearGradient id="grd13" gradientUnits="userSpaceOnUse"  x1="949" y1="96.783" x2="0" y2="96.783">
			<stop offset="0" stop-color="#00aeff"  />
			<stop offset="0.346" stop-color="#3369e6"  />
			<stop offset="1" stop-color="#913fe6"  />
		</linearGradient>
		<linearGradient id="grd14" gradientUnits="userSpaceOnUse"  x1="0" y1="176" x2="1192" y2="176">
			<stop offset="0" stop-color="#ffffff" stop-opacity="0" />
			<stop offset="1" stop-color="#ffffff"  />
		</linearGradient>
		<linearGradient id="grd15" gradientUnits="userSpaceOnUse"  x1="481" y1="161.463" x2="0" y2="160.783">
			<stop offset="0" stop-color="#00aeff"  />
			<stop offset="0.346" stop-color="#3369e6"  />
			<stop offset="1" stop-color="#913fe6"  />
		</linearGradient>
		<linearGradient id="grd16" gradientUnits="userSpaceOnUse"  x1="553" y1="96.783" x2="0" y2="96.783">
			<stop offset="0" stop-color="#00aeff"  />
			<stop offset="0.346" stop-color="#3369e6"  />
			<stop offset="1" stop-color="#913fe6"  />
		</linearGradient>
		<linearGradient id="grd17" gradientUnits="userSpaceOnUse"  x1="819" y1="135.314" x2="0" y2="131.915">
			<stop offset="0" stop-color="#00aeff"  />
			<stop offset="0.346" stop-color="#3369e6"  />
			<stop offset="1" stop-color="#913fe6"  />
		</linearGradient>
		<linearGradient id="grd18" gradientUnits="userSpaceOnUse"  x1="0" y1="144" x2="294" y2="144">
			<stop offset="0" stop-color="#ffffff" stop-opacity="0" />
			<stop offset="1" stop-color="#ffffff"  />
		</linearGradient>
		<linearGradient id="grd19" gradientUnits="userSpaceOnUse"  x1="35.434" y1="272" x2="226.8" y2="272">
			<stop offset="0" stop-color="#ffffff" stop-opacity="0" />
			<stop offset="1" stop-color="#ffffff"  />
		</linearGradient>
		<linearGradient id="grd20" gradientUnits="userSpaceOnUse"  x1="400" y1="288.783" x2="0" y2="288.783">
			<stop offset="0" stop-color="#00aeff"  />
			<stop offset="0.346" stop-color="#3369e6"  />
			<stop offset="1" stop-color="#913fe6"  />
		</linearGradient>
		<linearGradient id="grd21" gradientUnits="userSpaceOnUse"  x1="644" y1="288.783" x2="0" y2="288.783">
			<stop offset="0" stop-color="#00aeff"  />
			<stop offset="0.346" stop-color="#3369e6"  />
			<stop offset="1" stop-color="#913fe6"  />
		</linearGradient>
		<linearGradient id="grd22" gradientUnits="userSpaceOnUse"  x1="800" y1="304.483" x2="0" y2="304">
			<stop offset="0" stop-color="#00aeff"  />
			<stop offset="0.346" stop-color="#3369e6"  />
			<stop offset="1" stop-color="#913fe6"  />
		</linearGradient>
	</defs>
	<style>
		tspan { white-space:pre }
		.shp0 { fill: url(#grd1) } 
		.shp1 { opacity: 0.4;fill: url(#grd2) } 
		.shp2 { opacity: 0.2;fill: url(#grd3) } 
		.shp3 { opacity: 0.898;fill: url(#grd4) } 
		.shp4 { opacity: 0.4;fill: url(#grd5) } 
		.shp5 { opacity: 0.2;fill: url(#grd6) } 
		.shp6 { fill: url(#grd7) } 
		.shp7 { opacity: 0.898;fill: url(#grd8) } 
		.shp8 { opacity: 0.898;fill: url(#grd9) } 
		.shp9 { opacity: 0.898;fill: url(#grd10) } 
		.shp10 { opacity: 0.4;fill: url(#grd11) } 
		.shp11 { opacity: 0.2;fill: url(#grd12) } 
		.shp12 { opacity: 0.4;fill: url(#grd13) } 
		.shp13 { opacity: 0.2;fill: url(#grd14) } 
		.shp14 { opacity: 0.749;fill: url(#grd15) } 
		.shp15 { opacity: 0.898;fill: url(#grd16) } 
		.shp16 { opacity: 0.898;fill: url(#grd17) } 
		.shp17 { opacity: 0.2;fill: url(#grd18) } 
		.shp18 { opacity: 0.302;fill: url(#grd19) } 
		.shp19 { opacity: 0.898;fill: url(#grd20) } 
		.shp20 { opacity: 0.4;fill: url(#grd21) } 
		.shp21 { opacity: 0.4;fill: url(#grd22) } 
	</style>
	<g id="gradient back">
		<path id="Path 1" class="shp0" d="M0,352h183.99c8.85,0 16.01,-7.16 16.01,-16c0,-8.84 -7.17,-16 -16.01,-16h-183.99z" />
		<path id="Path 2" class="shp1" d="M0,416h306c8.84,0 16,-7.16 16,-16c0,-8.84 -7.16,-16 -16,-16h-306z" />
		<path id="Path 3" class="shp2" d="M0,448h104c8.83,0 16,-7.16 16,-16c0,-8.84 -7.16,-16 -16,-16h-104z" />
		<path id="Path 4" class="shp3" d="M0,96h310c8.83,0 16,-7.16 16,-16c0,-8.84 -7.16,-16 -16,-16h-310z" />
		<path id="Path 5" class="shp4" d="M0,64h210c8.83,0 16,-7.16 16,-16c0,-8.84 -7.16,-16 -16,-16h-210z" />
		<path id="Path 6" class="shp5" d="M0,32h84c8.83,0 16,-7.16 16,-16c0,-8.84 -7.16,-16 -16,-16h-84z" />
		<path id="Path 7" class="shp6" d="M0,256h1422.99c8.84,0 16.01,-7.16 16.01,-16c0,-8.84 -7.17,-16 -16.01,-16h-1422.99z" />
		<path id="Path 8" class="shp7" d="M0,224h1504.01c8.83,0 15.99,-7.16 15.99,-16c0,-8.84 -7.16,-16 -15.99,-16h-1504.01z" />
		<path id="Path 9" class="shp8" d="M0,224h918.99c8.85,0 16.01,-7.16 16.01,-16c0,-8.84 -7.17,-16 -16.01,-16h-918.99z" />
		<path id="Path 10" class="shp9" d="M0,192h1342c8.84,0 16,-7.16 16,-16c0,-8.84 -7.16,-16 -16,-16h-1342z" />
		<path id="Path 11" class="shp10" d="M0,192h1552c8.84,0 16,-7.16 16,-16c0,-8.84 -7.16,-16 -16,-16h-1552z" />
		<path id="Path 12" class="shp11" d="M0,160h1422.99c8.84,0 16.01,-7.16 16.01,-16c0,-8.84 -7.17,-16 -16.01,-16h-1422.99z" />
		<path id="Path 13" class="shp12" d="M0,128h933c8.84,0 16,-7.16 16,-16c0,-8.84 -7.16,-16 -16,-16h-933z" />
		<path id="Path 14" class="shp13" d="M0,192h1176c8.83,0 16,-7.16 16,-16c0,-8.84 -7.17,-16 -16,-16h-1176z" />
		<path id="Path 15" class="shp14" d="M0,192h465c8.83,0 16,-7.16 16,-16c0,-8.84 -7.16,-16 -16,-16h-465z" />
		<path id="Path 16" class="shp15" d="M0,128h537.01c8.82,0 15.99,-7.16 15.99,-16c0,-8.84 -7.16,-16 -15.99,-16h-537.01z" />
		<path id="Path 17" class="shp16" d="M0,160h803.01c8.83,0 15.99,-7.16 15.99,-16c0,-8.84 -7.16,-16 -15.99,-16h-803.01zM0,288h703.99c8.85,0 16,-7.16 16,-16c0,-8.84 -7.17,-16 -16,-16h-703.99z" />
		<path id="Path 18" class="shp17" d="M0,160h278c8.84,0 16,-7.16 16,-16c0,-8.84 -7.17,-16 -16,-16h-278z" />
		<path id="Path 19" class="shp18" d="M0,288h224c8.84,0 16,-7.16 16,-16c0,-8.84 -7.16,-16 -16,-16h-224z" />
		<path id="Path 20" class="shp19" d="M0,320h383.99c8.85,0 16.01,-7.16 16.01,-16c0,-8.84 -7.17,-16 -16.01,-16h-383.99z" />
		<path id="Path 21" class="shp20" d="M0,320h628c8.84,0 16,-7.16 16,-16c0,-8.84 -7.16,-16 -16,-16h-628z" />
		<path id="Path 22" class="shp21" d="M0,320h784c8.84,0 16,-7.16 16,-16c0,-8.84 -7.16,-16 -16,-16h-784z" />
	</g>
</svg>