<svg xmlns="http://www.w3.org/2000/svg" viewBox="0 0 783.86 242.65"><defs><style>.cls-1{fill:#2196F3;}.cls-2{fill:#2196F3;}</style></defs><title>ssss</title><g id="Слой_1" data-name="Слой 1"><path class="cls-1" d="M147.89,211.67c-12.57,0-16.84-5.85-15.49-16.87L136.8,159c1.88-15.32-4.2-21.86-14.36-21.86-9.29,0-16.46,6.54-18,19.28l-6.79,55.24H91.44c-10.16,0-16.15-5.85-14.8-16.87L81,159c1.88-15.32-4.38-21.86-14.53-21.86-9,0-16.53,7.06-18.09,19.79L41.7,211.67H35.5c-9.46,0-15.93-6.19-14.62-16.87l4.42-36c3.1-25.29,18.43-42.16,46.48-42.16,12,0,20.84,5.51,26.45,14.46a36.31,36.31,0,0,1,28.45-14.46c21.34,0,37,12.91,33.73,39.24l-6.84,55.76Z" transform="translate(-20.71 -5.36)"/><path class="cls-1" d="M182.4,241.79c-8.61,0-15.48-5.68-14.43-14.28l.55-4.48,13.19-.86c8.5-.52,11.84-4,18.44-17-10-18.41-21.85-64.54-22.26-86.4h12.22c6.37,0,11.69,4.31,12.09,10.85a181.12,181.12,0,0,0,12,53.52c9.7-17.38,21.58-45.43,26-64.37h10c7.4,0,10.44,3.27,9.51,10.85-1.2,9.81-22.58,52.15-28.11,62.13C209.38,232.32,199.09,241.79,182.4,241.79Z" transform="translate(-20.71 -5.36)"/><path class="cls-1" d="M596.61,182.93c-.88,7.23,4.44,11.53,14.59,11.53,10,0,15.4-4.82,16.56-14.28l1.1-9H620.6C603,171.23,597.54,175.36,596.61,182.93Z" transform="translate(-20.71 -5.36)"/><path class="cls-1" d="M761.29,98.42c-12.73,0-29.24-2.54-46.49-7.16-16.47-4.42-31.56-10.2-42.5-16.28-11.58-6.45-17.25-12.56-16.93-18.21H326.23c-16.29,0-33.45,13.21-38.32,29.51L270.27,218.5C265.39,234.8,274.65,248,291,248h434c16.29,0,33.45-13.21,38.33-29.51L779.72,95C775.89,97.27,769.73,98.42,761.29,98.42Zm-350.1,16.36-5.37,43.71c-4.25,34.6-22.79,55.25-56.52,55.25-28.57,0-44.64-19.11-40.46-53.18L317,93.78h9.12c7.41,0,14,5.33,12,21.68L332.78,159c-2.7,22,3.39,32.7,21.63,32.7,16.7,0,24.93-11,27.49-31.84L390,93.78H399C407.91,93.78,413,100.32,411.19,114.78ZM493,136.46,492,145.24h-.86c-4.23-4.82-14.43-8.61-25.45-8.61-14.11,0-19.11,4.31-19.85,10.33-.57,4.65,1.95,6.54,17.47,9.12,18.89,3.1,28.18,11.53,26.37,26.33C487.22,202,472,213.74,447.06,213.74c-17,0-28.7-8.78-27.54-18.25L420.81,185h.86c4.42,4.64,15.79,8.77,26.8,8.77,11.36,0,17.27-3.27,18.12-10.15.65-5.34-2.3-7.92-18-10.16-19.28-2.75-27.8-10.49-26.07-24.61,2.14-17.38,19.62-32.18,43.37-32.18C486.86,116.67,494.13,127.51,493,136.46Zm77.09-8.26c-.6,4.82-5.66,11-15.13,11H536.58l-4.46,36.31c-1.48,12.05,3.29,16.7,12.58,16.7,7.4,0,13.21-1,17.1-3.28h.86l-1,8.27c-1.16,9.46-8.78,15.49-22.21,15.49-23.4,0-33.2-12.74-30.54-34.43l6.85-55.76c1.12-9.12,3.26-12.56,9-18.42,3.55-3.61,8-6.36,11.63-6.36h5.33l-2.58,21h32.19ZM653,158.66,650.32,180c-2.4,19.63-18.53,33.22-39.18,33.22h-4.65c-22,0-35.65-12.39-33.56-29.43,2-16.52,15.62-29.09,49.7-29.09h8.08l.15-1.2c1.61-13.08-4.1-17-17.87-17-16.69,0-26.77,6.37-30.74,10.67h-.86l.91-7.4C583.57,129.4,594.38,117,618.82,117,639.47,117,656.88,126.65,653,158.66Zm89.32-28c-.89,7.23-5.73,15.83-14.9,24.61l-26.31,25.13a78.28,78.28,0,0,0-10.2,11.53H736l-1.1,9c-.69,5.68-7.35,10.84-13.2,10.84H676.39c-10.68,0-15.23-5-14.34-12.22.87-7,7.3-16,17.24-25.47l26.54-25.47c3.13-3.1,7.27-7.4,9.2-10.5H669.42l.87-7.06c.85-6.88,6.49-12.22,16.82-12.22h42.16C740.12,118.73,742.93,125.27,742.27,130.61Z" transform="translate(-20.71 -5.36)"/><path class="cls-2" d="M778.31,81.28,664.79,50.86c-1.27-.34-2.52-.71-3.74-1.08a.5.5,0,0,0,0,.12,3.66,3.66,0,0,0-.18.46,4.33,4.33,0,0,0-.08.5c-.06.15-.13.3-.18.47s-.05.32-.08.49a3.75,3.75,0,0,0-.17.47,4.21,4.21,0,0,0-.09.49,4.43,4.43,0,0,0-.17.47,2.78,2.78,0,0,0-.08.49,3,3,0,0,0-.18.47,4,4,0,0,0-.08.5,3.66,3.66,0,0,0-.18.46,4.33,4.33,0,0,0-.08.5c-.06.15-.13.3-.18.47-2.25,8.39,23.05,22.46,56.49,31.42s62.39,9.42,64.64,1a4.17,4.17,0,0,0,.08-.49c.06-.16.13-.31.18-.47s0-.33.08-.49a4.43,4.43,0,0,0,.17-.47,2.74,2.74,0,0,0,.08-.5,2.58,2.58,0,0,0,.18-.46,4.33,4.33,0,0,0,.08-.5,3.8,3.8,0,0,0,.18-.47,4.17,4.17,0,0,0,.08-.49c.06-.16.13-.31.18-.47s0-.33.08-.49a4.43,4.43,0,0,0,.17-.47,4.21,4.21,0,0,0,.09-.49.56.56,0,0,1,0-.12C780.85,81.93,779.59,81.62,778.31,81.28Z" transform="translate(-20.71 -5.36)"/><path class="cls-2" d="M776.93,36.31l-88.45-23.7C676,9.26,665.22,9,664.42,12l-19.8,23.76c-.8,3,8.67,8.11,21.16,11.46L779.3,77.59c12.49,3.34,23.26,3.64,24.06.65l-5.27-30.47C798.89,44.78,789.41,39.65,776.93,36.31Z" transform="translate(-20.71 -5.36)"/><path class="cls-2" d="M777.17,35.4,688.72,11.7c-12.49-3.35-23.26-3.64-24.05-.66L644.86,34.8c-.8,3,8.68,8.12,21.16,11.46L779.55,76.68C792,80,802.8,80.32,803.6,77.34l-5.27-30.48C799.13,43.88,789.66,38.75,777.17,35.4Z" transform="translate(-20.71 -5.36)"/><path class="cls-2" d="M777.41,34.49,689,10.79c-12.48-3.34-23.25-3.64-24.05-.65L645.1,33.9c-.79,3,8.68,8.11,21.17,11.45L779.79,75.77c12.49,3.35,23.26,3.64,24.06.66L798.58,46C799.37,43,789.9,37.84,777.41,34.49Z" transform="translate(-20.71 -5.36)"/><path class="cls-2" d="M777.66,33.59,689.21,9.89C676.72,6.54,666,6.25,665.15,9.23L645.35,33c-.8,3,8.67,8.11,21.16,11.46L780,74.87c12.49,3.34,23.26,3.64,24.06.65L798.82,45C799.62,42.06,790.14,36.93,777.66,33.59Z" transform="translate(-20.71 -5.36)"/><path class="cls-2" d="M777.9,32.68,689.45,9C677,5.63,666.19,5.34,665.39,8.32l-19.8,23.76c-.8,3,8.68,8.11,21.16,11.46L780.28,74c12.48,3.34,23.25,3.64,24.05.66l-5.27-30.48C799.86,41.15,790.39,36,777.9,32.68Z" transform="translate(-20.71 -5.36)"/><path class="cls-2" d="M778.14,31.77,689.69,8.07c-12.48-3.34-23.25-3.64-24.05-.66L645.83,31.17c-.8,3,8.68,8.12,21.17,11.46L780.52,73.05c12.49,3.35,23.26,3.64,24.06.66L799.3,43.23C800.1,40.25,790.63,35.12,778.14,31.77Z" transform="translate(-20.71 -5.36)"/><rect class="cls-2" x="780.48" y="68.47" width="3.39" height="32.43"/></g></svg>