<svg xmlns="http://www.w3.org/2000/svg" xmlns:xlink="http://www.w3.org/1999/xlink" xmlns:fi="http://pattern.flaticon.com/" x="0" y="0" width="700" height="350" viewBox="0 0 700 350"><rect x="0px" y="0px" width="100%" height="100%" opacity="0" fill="#239dff"/><defs><g transform="matrix(0.11149601062056802 -0.111496010620568 0.111496010620568 0.11149601062056802 84.59412242736073 217.99820386975495)" id="L1_0"><path d="m377.53,189.821v-114.948c11.234-1.248 20-10.796 20-22.358 0-12.407-10.093-22.5-22.5-22.5h-100c-12.407,0-22.5,10.093-22.5,22.5 0,11.561 8.766,21.11 20,22.358v114.95c-22.675,8.812-42.852,23.265-58.606,42.033-2.664,3.173-2.25,7.903 0.922,10.566 1.406,1.18 3.117,1.756 4.818,1.756 2.14,0 4.265-0.911 5.748-2.678 15.171-18.073 34.906-31.682 57.072-39.356 3.021-1.046 5.046-3.891 5.046-7.087v-120.042h42.5c4.142,0 7.5-3.358 7.5-7.5s-3.358-7.5-7.5-7.5h-55c-4.136,0-7.5-3.364-7.5-7.5s3.364-7.5 7.5-7.5h100c4.136,0 7.5,3.364 7.5,7.5s-3.364,7.5-7.5,7.5h-15c-4.142,0-7.5,3.358-7.5,7.5s3.358,7.5 7.5,7.5h2.5v120.041c0,3.196 2.026,6.042 5.046,7.087 52.309,18.11 87.454,67.488 87.454,122.871 0,71.682-58.318,130-130,130-16.899,0-33.349-3.202-48.892-9.516-3.836-1.56-8.212,0.288-9.771,4.125-1.559,3.837 0.289,8.212 4.126,9.771 17.345,7.046 35.693,10.619 54.537,10.619 79.953,0 145-65.047 145-145 5.68434e-14-59.971-36.952-113.631-92.5-135.192z" fill="#ffffff"/><circle cx="380" cy="351" r="7" fill="#ffffff"/><circle cx="350" cy="381" r="7" fill="#ffffff"/><path d="m282.67,415.62c-3.749-1.755-8.215-0.14-9.973,3.611-1.757,3.751-0.14,8.216 3.611,9.973 15.316,7.174 31.708,10.812 48.722,10.812 63.411,0 115-51.589 115-115 0-20.213-5.323-40.098-15.394-57.506-1.528-2.641-4.501-4.096-7.525-3.672l-2.73,.38c-0.342,0.047-0.682,0.119-1.014,0.213-11.338,3.218-17.453,8.129-22.366,12.075-5.443,4.372-9.04,7.26-19.416,7.26-8.861,0-12.859-3.435-18.393-8.189-6.125-5.262-13.748-11.811-28.167-11.811-14.418,0-22.04,6.549-28.165,11.812-5.533,4.754-9.53,8.188-18.389,8.188-10.375,0-13.97-2.888-19.413-7.26-4.913-3.946-11.027-8.857-22.363-12.075-0.333-0.095-0.672-0.166-1.015-0.213l-2.73-.38c-3.018-0.423-5.984,1.024-7.515,3.655-0.065,0.111-0.128,0.224-0.197,0.352-2.064,3.591-0.826,8.176 2.765,10.24 1.56,0.896 3.306,1.17 4.953,0.898l.125,.018c8.09,2.378 12.219,5.694 16.584,9.201 6.466,5.194 13.153,10.565 28.806,10.565 14.418,0 22.04-6.549 28.165-11.812 5.533-4.754 9.53-8.188 18.389-8.188 8.861,0 12.859,3.435 18.393,8.189 6.125,5.262 13.748,11.811 28.167,11.811 15.654,0 22.341-5.371 28.809-10.564 3.853-3.095 7.52-6.04 13.89-8.325 7.045,13.921 10.747,29.414 10.747,45.139 0,55.14-44.86,100-100,100-14.799-0.002-29.051-3.163-42.361-9.397z" fill="#ffffff"/><path d="m181.03,193.796v-148.923c11.234-1.248 20-10.796 20-22.358 0-12.407-10.093-22.5-22.5-22.5h-100c-12.407,0-22.5,10.093-22.5,22.5 0,11.561 8.766,21.11 20,22.358v120.184c0,4.142 3.358,7.5 7.5,7.5s7.5-3.358 7.5-7.5v-120.042h42.5c4.142,0 7.5-3.358 7.5-7.5s-3.358-7.5-7.5-7.5h-55c-4.136,0-7.5-3.364-7.5-7.5s3.364-7.5 7.5-7.5h100c4.136,0 7.5,3.364 7.5,7.5s-3.364,7.5-7.5,7.5h-15c-4.142,0-7.5,3.358-7.5,7.5s3.358,7.5 7.5,7.5h2.5v150.042c0,0.834 0.139,1.663 0.412,2.451l72.889,210.754c4.402,12.728 3.409,24.535-2.795,33.246-6.205,8.71-17.038,13.508-30.505,13.508h-155c-13.467,0-24.301-4.797-30.506-13.508-6.204-8.711-7.197-20.518-2.795-33.245l72.889-210.753c1.354-3.915-0.722-8.186-4.636-9.54-3.914-1.353-8.186,0.722-9.54,4.636l-72.89,210.753c-6.032,17.439-4.343,34.078 4.754,46.85 9.097,12.772 24.27,19.806 42.723,19.806h155c18.453,0 33.626-7.034 42.723-19.806 9.097-12.772 10.786-29.411 4.754-46.85l-72.477-209.563z" fill="#ffffff"/><path d="m64.652,348.792c-1.91-1.481-4.419-1.953-6.734-1.263-2.317,0.689-4.161,2.453-4.951,4.738l-21.062,60.899c-2.772,8.016-2.475,14.991 0.837,19.64 3.312,4.649 9.806,7.21 18.288,7.21h155c8.481,0 14.976-2.561 18.287-7.21 3.313-4.649 3.61-11.625 0.837-19.64l-21.063-60.901c-0.79-2.285-2.633-4.048-4.95-4.737-2.317-0.69-4.825-0.219-6.734,1.263-4.091,3.173-7.964,5.601-17.323,5.601-8.86,0-12.859-3.435-18.393-8.189-6.125-5.262-13.748-11.811-28.167-11.811-14.418,0-22.04,6.549-28.165,11.812-5.533,4.754-9.53,8.188-18.39,8.188-9.356-0.002-13.228-2.428-17.317-5.6zm45.483,8.787c5.533-4.754 9.53-8.188 18.389-8.188 8.861,0 12.859,3.435 18.393,8.189 6.125,5.262 13.748,11.811 28.167,11.811 7.84,0 13.484-1.404 17.89-3.379l18.004,52.057c1.064,3.077 1.123,5.092 1.018,5.961-0.787,0.383-2.71,0.986-5.966,0.986h-155c-3.256,0-5.179-0.603-5.966-0.986-0.105-0.869-0.046-2.884 1.018-5.961l18.003-52.055c4.404,1.975 10.047,3.378 17.885,3.378 14.419-0.002 22.041-6.551 28.165-11.813z" fill="#ffffff"/></g><g transform="matrix(0.17585796098056108 0.08965307600843078 -0.08965307600843078 0.17585796098056108 258.7418519570436 -36.3950937669189)" id="L1_1"><path d="m404.917,461.94c-0.109-55.987-16.732-104.51-50.81-148.331-29.398-37.804-68.021-67.604-105.374-96.424-71.312-55.022-138.671-106.994-138.671-209.685 1.42109e-14-4.142-3.358-7.5-7.5-7.5h-30c-4.142,0-7.5,3.358-7.5,7.5 0,56.221 16.62,104.924 50.809,148.89 23.403,30.095 52.656,55.113 82.459,78.608-27.877,21.961-58.428,47.709-82.459,78.612-34.189,43.966-50.809,92.668-50.809,148.89 0,4.142 3.358,7.5 7.5,7.5h30c4.142,0 7.5-3.358 7.5-7.5 0-7.788 0.386-15.276 1.122-22.5h53.335c4.142,0 7.5-3.358 7.5-7.5s-3.358-7.5-7.5-7.5h-51.241c2.892-16.09 7.673-30.807 14.052-44.515h185.739c4.142,0 7.5-3.358 7.5-7.5s-3.358-7.5-7.5-7.5h-177.916c9.25-15.944 20.757-30.564 34.006-44.516h91.552c4.142,0 7.5-3.358 7.5-7.5s-3.358-7.5-7.5-7.5h-76.413c15.349-14.395 32.452-28.308 50.696-42.52 65.983,51.312 124.924,102.991 124.924,199.051 0,4.142 3.358,7.5 7.5,7.5h30c4.162,0 7.52-3.358 7.52-7.5 0-0.188-0.007-0.375-0.021-0.56zm-244.189-154.103c-0.326,0.286-0.629,0.597-0.901,0.935-8.273,8.572-16.024,17.476-23.052,26.874-8.039,10.752-14.887,21.831-20.578,33.288-0.295,0.458-0.538,0.951-0.729,1.47-9.276,19.06-15.347,39.174-18.299,60.592-0.062,0.305-0.099,0.619-0.123,0.937-1.004,7.525-1.632,15.208-1.872,23.067h-15.005c1.417-49.608 17.008-92.915 47.543-132.182 23.847-30.664 54.854-56.411 82.79-78.311 3.586,2.78 7.171,5.55 10.744,8.307 0.501,0.387 1.001,0.773 1.502,1.159-22.127,17.276-43.407,34.724-62.02,53.864zm214.075,147.163c-1.424-46.424-16.173-86.979-44.97-123.759-26.875-34.327-62.115-61.517-99.427-90.305-36.61-28.248-74.467-57.457-102.694-93.754-30.535-39.267-46.126-82.574-47.543-132.182h15.008c1.424,46.424 16.173,86.979 44.97,123.759 26.875,34.327 62.115,61.517 99.425,90.303 36.61,28.247 74.467,57.456 102.695,93.756 30.536,39.267 46.127,82.574 47.544,132.182h-15.008z" fill="#ffffff"/><path d="m156.911,89.515c-4.142,0-7.5,3.358-7.5,7.5s3.358,7.5 7.5,7.5h30c4.142,0 7.5-3.358 7.5-7.5s-3.358-7.5-7.5-7.5h-30z" fill="#ffffff"/><path d="m134.9,45h221.884c-2.818,16.035-7.497,30.742-13.869,44.515h-126.004c-4.142,0-7.5,3.358-7.5,7.5s3.358,7.5 7.5,7.5h118.207c-9.111,15.733-20.557,30.344-34.047,44.516h-91.801c-4.142,0-7.5,3.358-7.5,7.5s3.358,7.5 7.5,7.5h76.632c-9.657,9.034-20.127,17.987-31.331,27.044-3.221,2.604-3.722,7.326-1.118,10.547 2.603,3.221 7.327,3.722 10.547,1.118 33.396-26.997 68.18-58.276 89.692-101.53 0.382-0.565 0.684-1.187 0.902-1.847 8.665-17.874 15.063-37.778 18.185-60.245 0.084-0.382 0.134-0.775 0.157-1.176 0.983-7.369 1.622-15.005 1.867-22.941h15.008c-1.417,49.608-17.009,92.915-47.544,132.182-15.621,20.088-35.775,40.042-63.427,62.796-3.198,2.632-3.658,7.358-1.026,10.557 1.483,1.802 3.631,2.735 5.796,2.734 1.677,0 3.365-0.56 4.761-1.708 28.53-23.477 49.418-44.185 65.737-65.171 34.19-43.966 50.81-92.668 50.81-148.89 0-4.142-3.358-7.5-7.5-7.5h-30c-4.142,0-7.5,3.358-7.5,7.5 0,7.787-0.366,15.276-1.081,22.5h-223.937c-4.142,0-7.5,3.358-7.5,7.5s3.358,7.499 7.5,7.499z" fill="#ffffff"/><path d="m335.082,425h-140.563c-4.142,0-7.5,3.358-7.5,7.5s3.358,7.5 7.5,7.5h140.563c4.142,0 7.5-3.358 7.5-7.5s-3.358-7.5-7.5-7.5z" fill="#ffffff"/></g><g transform="matrix(0.12765957415103912 0 0 0.12765957415103912 122 69)" id="L1_2"><path d="M272.09,146.464c4.142,0,7.5-3.358,7.5-7.5s-3.358-7.5-7.5-7.5h-0.627V99.27c0-10.963-8.919-19.883-19.883-19.883H28.01   c-10.963,0-19.883,8.919-19.883,19.883v32.194H7.5c-4.142,0-7.5,3.358-7.5,7.5s3.358,7.5,7.5,7.5h18.45v17.917l-9.202,5.27   C7.356,175.029,0,188.403,0,200.1v237.635C0,455.526,14.474,470,32.266,470h215.059c17.792,0,32.266-14.474,32.266-32.266V200.1   c0-11.696-7.356-25.071-16.749-30.449l-9.202-5.269v-17.917H272.09z M264.59,437.734c0,9.521-7.745,17.266-17.266,17.266H32.266   C22.745,455,15,447.255,15,437.734v-17.266h249.59V437.734z M264.59,405.469H15V260.292h249.59V405.469z M255.388,182.667   c4.816,2.758,9.202,11.066,9.202,17.432v45.193H15V200.1c0-6.366,4.386-14.674,9.202-17.432l12.976-7.43   c2.333-1.336,3.773-3.819,3.773-6.508v-22.266h197.69v22.266c0,2.689,1.439,5.172,3.773,6.508L255.388,182.667z M23.127,131.464   V99.27c0-2.647,2.236-4.883,4.883-4.883h29.784v14.577c0,4.142,3.358,7.5,7.5,7.5s7.5-3.358,7.5-7.5V94.387h34.667v14.577   c0,4.142,3.358,7.5,7.5,7.5s7.5-3.358,7.5-7.5V94.387h34.667v14.577c0,4.142,3.358,7.5,7.5,7.5s7.5-3.358,7.5-7.5V94.387h34.667   v14.577c0,4.142,3.358,7.5,7.5,7.5s7.5-3.358,7.5-7.5V94.387h29.785c2.647,0,4.883,2.236,4.883,4.883v32.194H23.127z" fill="#ffffff"/><path d="m94.927,378.352h89.736c25.073,0 45.471-20.398 45.471-45.471s-20.398-45.471-45.471-45.471h-89.736c-25.073,0-45.471,20.398-45.471,45.471s20.398,45.471 45.471,45.471zm52.368-75.942h37.368c16.802,0 30.471,13.669 30.471,30.471s-13.669,30.471-30.471,30.471h-37.368v-60.942zm-52.368,0h37.368v60.942h-37.368c-16.802,0-30.471-13.669-30.471-30.471s13.669-30.471 30.471-30.471z" fill="#ffffff"/><path d="m216.14,161.229h-92.69c-4.142,0-7.5,3.358-7.5,7.5s3.358,7.5 7.5,7.5h92.69c4.142,0 7.5-3.358 7.5-7.5s-3.358-7.5-7.5-7.5z" fill="#ffffff"/><path d="m93.45,161.229h-30c-4.142,0-7.5,3.358-7.5,7.5s3.358,7.5 7.5,7.5h30c4.142,0 7.5-3.358 7.5-7.5s-3.358-7.5-7.5-7.5z" fill="#ffffff"/><path d="m306.064,432.5c0,4.142 3.358,7.5 7.5,7.5s7.5-3.358 7.5-7.5v-60c0-4.142-3.358-7.5-7.5-7.5s-7.5,3.358-7.5,7.5v60z" fill="#ffffff"/><path d="m313.564,350c4.142,0 7.5-3.358 7.5-7.5v-305c0-4.142-3.358-7.5-7.5-7.5s-7.5,3.358-7.5,7.5v305c0,4.142 3.358,7.5 7.5,7.5z" fill="#ffffff"/><path d="M413.5,0H213.628c-31.154,0-56.5,25.346-56.5,56.5c0,4.142,3.358,7.5,7.5,7.5s7.5-3.358,7.5-7.5   c0-22.883,18.617-41.5,41.5-41.5H413.5c22.883,0,41.5,18.617,41.5,41.5v357c0,22.883-18.617,41.5-41.5,41.5H296.269   c-4.142,0-7.5,3.358-7.5,7.5s3.358,7.5,7.5,7.5H413.5c31.154,0,56.5-25.346,56.5-56.5v-357C470,25.346,444.654,0,413.5,0z" fill="#ffffff"/><path d="m388.032,117.645c20.188,0 36.613-16.424 36.613-36.613 0-20.188-16.424-36.612-36.613-36.612s-36.613,16.424-36.613,36.612c0,20.189 16.425,36.613 36.613,36.613zm0-58.225c11.917,0 21.613,9.695 21.613,21.612 0,11.917-9.695,21.613-21.613,21.613s-21.613-9.695-21.613-21.613c0-11.917 9.696-21.612 21.613-21.612z" fill="#ffffff"/><path d="m388.032,220.29c20.188,0 36.613-16.424 36.613-36.613 0-20.188-16.424-36.612-36.613-36.612s-36.613,16.424-36.613,36.612c0,20.189 16.425,36.613 36.613,36.613zm0-58.225c11.917,0 21.613,9.695 21.613,21.612 0,11.917-9.695,21.613-21.613,21.613s-21.613-9.695-21.613-21.613c0-11.917 9.696-21.612 21.613-21.612z" fill="#ffffff"/><path d="m388.032,322.935c20.188,0 36.613-16.424 36.613-36.612 0-20.188-16.424-36.613-36.613-36.613s-36.613,16.424-36.613,36.613c0,20.188 16.425,36.612 36.613,36.612zm0-58.225c11.917,0 21.613,9.695 21.613,21.613 0,11.917-9.695,21.612-21.613,21.612s-21.613-9.695-21.613-21.612c0-11.918 9.696-21.613 21.613-21.613z" fill="#ffffff"/><path d="m388.032,425.58c20.188,0 36.613-16.424 36.613-36.612 0-20.188-16.424-36.613-36.613-36.613s-36.613,16.424-36.613,36.613c0,20.188 16.425,36.612 36.613,36.612zm0-58.225c11.917,0 21.613,9.695 21.613,21.613 0,11.917-9.695,21.612-21.613,21.612s-21.613-9.695-21.613-21.612c0-11.918 9.696-21.613 21.613-21.613z" fill="#ffffff"/><path d="m227.023,63.103c3.569-2.41 7.744-3.683 12.074-3.683 4.419,0 8.666,1.322 12.28,3.824 1.302,0.901 2.789,1.333 4.261,1.333 2.378,0 4.718-1.128 6.174-3.232 2.357-3.406 1.507-8.078-1.899-10.436-6.134-4.246-13.333-6.49-20.816-6.49-7.333,0-14.41,2.162-20.467,6.251-3.433,2.318-4.337,6.979-2.019,10.413s6.98,4.338 10.412,2.02z" fill="#ffffff"/></g><g transform="matrix(0.12765957415103912 0 0 0.12765957415103912 -20 242)" id="L1_3"><path d="m168.757,205.591l-7.525-2.445c-3.935-1.28-8.171,0.875-9.45,4.815-1.28,3.939 0.876,8.17 4.815,9.45l7.507,2.439c-1.044,4.889-1.604,9.954-1.604,15.149s0.561,10.261 1.604,15.149l-7.507,2.439c-3.939,1.28-6.096,5.511-4.815,9.45 1.029,3.169 3.97,5.185 7.131,5.185 0.769,0 1.55-0.119 2.319-0.369l7.525-2.445c4.179,9.375 10.278,17.71 17.814,24.488l-4.661,6.416c-2.435,3.351-1.692,8.042 1.659,10.476 1.331,0.967 2.873,1.433 4.402,1.433 2.318,0 4.606-1.072 6.073-3.092l4.657-6.411c8.637,5.018 18.389,8.319 28.798,9.394v7.888c0,4.142 3.357,7.5 7.5,7.5s7.5-3.358 7.5-7.5v-7.887c10.409-1.075 20.161-4.376 28.798-9.394l4.657,6.411c1.467,2.02 3.754,3.092 6.073,3.092 1.528,0 3.071-0.466 4.402-1.433 3.352-2.435 4.094-7.125 1.659-10.476l-4.661-6.416c7.536-6.778 13.635-15.113 17.814-24.488l7.524,2.445c0.77,0.25 1.551,0.369 2.319,0.369 3.161,0 6.102-2.015 7.131-5.184 1.28-3.939-0.876-8.171-4.815-9.451l-7.506-2.439c1.044-4.889 1.604-9.954 1.604-15.15s-0.561-10.261-1.604-15.15l7.506-2.439c3.939-1.28 6.096-5.511 4.815-9.451-1.279-3.94-5.514-6.095-9.45-4.815l-7.524,2.445c-4.179-9.375-10.278-17.71-17.814-24.488l4.661-6.416c2.435-3.351 1.692-8.042-1.659-10.476-3.348-2.434-8.041-1.693-10.476,1.66l-4.657,6.411c-8.637-5.018-18.389-8.319-28.798-9.394v-7.886c0-4.142-3.357-7.5-7.5-7.5s-7.5,3.358-7.5,7.5v7.887c-10.409,1.075-20.161,4.376-28.798,9.394l-4.657-6.411c-2.434-3.351-7.124-4.093-10.476-1.66-3.352,2.435-4.094,7.125-1.659,10.476l4.661,6.416c-7.534,6.779-13.633,15.114-17.812,24.489zm66.243-28.091c31.706,0 57.5,25.794 57.5,57.5s-25.794,57.5-57.5,57.5-57.5-25.794-57.5-57.5 25.794-57.5 57.5-57.5z" fill="#ffffff"/><path d="M401.17,68.83C356.784,24.444,297.771,0,235,0S113.216,24.444,68.83,68.83S0,172.229,0,235s24.444,121.784,68.83,166.17   S172.229,470,235,470c40.195,0,79.866-10.326,114.725-29.86c3.614-2.025,4.901-6.596,2.877-10.209s-6.595-4.902-10.21-2.876   C309.769,445.336,272.633,455,235,455c-121.309,0-220-98.691-220-220S113.691,15,235,15s220,98.691,220,220   c0,37.63-9.669,74.769-27.961,107.403c-2.025,3.613-0.738,8.184,2.875,10.209c3.611,2.023,8.184,0.739,10.209-2.875   C459.669,314.868,470,275.192,470,235C470,172.229,445.556,113.216,401.17,68.83z" fill="#ffffff"/><path d="m395.867,355.867c-22.056,0-40,17.944-40,40s17.944,40 40,40 40-17.944 40-40-17.944-40-40-40zm0,65c-13.785,0-25-11.215-25-25s11.215-25 25-25 25,11.215 25,25-11.215,25-25,25z" fill="#ffffff"/><path d="m120.979,349.021c31.437,31.436 72.729,47.154 114.021,47.154s82.585-15.718 114.021-47.154c62.871-62.872 62.871-165.17 0-228.042-45.445-45.445-113.45-59.574-173.251-36-0.956,0.377-1.827,0.949-2.555,1.676-2.929,2.929-2.928,7.677 0.001,10.605 2.221,2.22 5.486,2.757 8.215,1.61 54.205-21.297 115.805-8.464 156.982,32.714 57.023,57.023 57.023,149.806 0,206.829-28.515,28.515-65.958,42.771-103.414,42.767-37.447-0.003-74.906-14.259-103.414-42.767-41.217-41.217-54.03-102.898-32.645-157.141 1.52-3.854-0.373-8.209-4.227-9.729-3.855-1.519-8.21,0.374-9.729,4.227-23.575,59.804-9.447,127.809 35.995,173.251z" fill="#ffffff"/><path d="m126.282,86.282c-10.685,0-20.729,4.161-28.283,11.716-7.556,7.555-11.717,17.6-11.717,28.284s4.161,20.729 11.716,28.284c7.555,7.555 17.6,11.716 28.284,11.716s20.729-4.161 28.285-11.716c15.595-15.596 15.595-40.972-0.001-56.568-7.554-7.555-17.599-11.716-28.284-11.716zm17.678,57.678c-4.722,4.722-11,7.323-17.678,7.323s-12.955-2.601-17.678-7.323c-4.722-4.722-7.322-11-7.322-17.678s2.601-12.956 7.323-17.678c4.722-4.722 10.999-7.322 17.677-7.322s12.956,2.601 17.678,7.322c9.747,9.748 9.747,25.608 0,35.356z" fill="#ffffff"/></g><g transform="matrix(0.12765957415103912 0 0 0.12765957415103912 278.00000034283585 107)" id="L1_4"><path d="m146.897,250.626h9.594v33.668c0,4.142 3.358,7.5 7.5,7.5h30.2c4.142,0 7.5-3.358 7.5-7.5v-33.668h15v33.668c0,4.142 3.358,7.5 7.5,7.5h30.201c4.142,0 7.5-3.358 7.5-7.5v-33.668h9.594c4.142,0 7.5-3.358 7.5-7.5s-3.358-7.5-7.5-7.5h-4.493v-104.88h20.507l65.471,37.313c12.151,6.991 22.417,24.742 22.417,38.761v50.724c0,4.142 3.358,7.5 7.5,7.5s7.5-3.358 7.5-7.5v-50.724c0-19.367-13.15-42.104-29.963-51.778l-67.224-38.312c-1.131-0.645-2.411-0.984-3.713-0.984h-22.496v-38.349c0-4.142-3.358-7.5-7.5-7.5h-12.634v-62.397c0-4.142-3.358-7.5-7.5-7.5h-60.334c-4.142,0-7.5,3.358-7.5,7.5v62.397h-12.634c-4.142,0-7.5,3.358-7.5,7.5v158.229h-4.493c-4.142,0-7.5,3.358-7.5,7.5s3.357,7.5 7.5,7.5zm39.793,26.168h-15.2v-26.168h15.2v26.168zm60.201,0h-15.201v-26.168h15.201v26.168zm-60.368-261.794h45.334v54.897h-45.334v-54.897zm-20.133,69.897h85.602v150.729h-85.602v-150.729z" fill="#ffffff"/><path d="m382.888,280.044c-20.898,0-37.901,17.002-37.901,37.901 0,18.332 13.083,33.662 30.401,37.153v99.902h-307.3l18.392-42.877c5.354-12.482 21.353-23.027 34.934-23.027h231.073c4.142,0 7.5-3.358 7.5-7.5s-3.358-7.5-7.5-7.5h-22.5v-162.544c0-2.7-1.452-5.192-3.801-6.524l-32.997-18.709c-3.604-2.042-8.18-0.778-10.224,2.825-2.043,3.603-0.778,8.18 2.825,10.224l29.196,16.554v94.524h-168.089c-4.142,0-7.5,3.358-7.5,7.5v30c0,4.142 3.358,7.5 7.5,7.5h145.591c4.142,0 7.5-3.358 7.5-7.5s-3.358-7.5-7.5-7.5h-138.091v-15h160.591v48.651h-193.573c-19.594,0-40.994,14.106-48.719,32.114l-22.877,53.333c-0.994,2.317-0.757,4.979 0.631,7.084 1.388,2.105 3.74,3.372 6.262,3.372h326.178c4.142,0 7.5-3.358 7.5-7.5v-107.402c17.318-3.491 30.401-18.821 30.401-37.153-0.001-20.898-17.004-37.901-37.903-37.901zm0,60.803c-12.627,0-22.901-10.273-22.901-22.901 0-12.627 10.273-22.901 22.901-22.901 12.628,0 22.901,10.273 22.901,22.901 0.001,12.627-10.273,22.901-22.901,22.901z" fill="#ffffff"/></g><g transform="matrix(0.12765957415103912 0 0 0.12765957415103912 212 213)" id="L1_5"><path d="m467.803,377.323l-122.025-122.026c-2.929-2.929-7.678-2.929-10.606,0l-30.487,30.487-10.607-10.607 80.111-80.111c2.929-2.929 2.929-7.678 0-10.606l-3.719-3.719 30.052-30.052c1.565-1.565 2.359-3.741 2.169-5.946l-3.146-36.559c-0.474-5.508-3.655-12.343-7.564-16.253l-13.911-13.912c-3.909-3.909-10.744-7.089-16.252-7.564l-36.56-3.146c-0.061-0.005-0.122-0.002-0.183-0.006-0.186-0.011-0.373-0.02-0.56-0.017-0.098,0.001-0.194,0.009-0.291,0.014-0.162,0.008-0.323,0.019-0.484,0.038-0.101,0.012-0.2,0.027-0.3,0.043-0.158,0.025-0.316,0.054-0.472,0.09-0.095,0.021-0.189,0.044-0.283,0.069-0.162,0.043-0.322,0.093-0.481,0.146-0.085,0.029-0.17,0.057-0.253,0.089-0.166,0.063-0.33,0.135-0.492,0.21-0.073,0.034-0.147,0.065-0.219,0.102-0.168,0.085-0.332,0.18-0.495,0.278-0.063,0.038-0.128,0.072-0.189,0.112-0.168,0.109-0.331,0.229-0.492,0.352-0.051,0.039-0.104,0.073-0.154,0.113-0.206,0.166-0.406,0.344-0.598,0.535l-30.052,30.054-3.719-3.719c-2.929-2.929-7.678-2.929-10.606,0l-80.111,80.111-10.607-10.607 30.487-30.487c2.929-2.929 2.929-7.678 0-10.606l-122.027-122.026c-2.929-2.929-7.678-2.929-10.606-2.66454e-15l-71.58,71.58c-2.929,2.929-2.929,7.678 0,10.606l122.026,122.026c1.464,1.464 3.384,2.197 5.303,2.197s3.839-0.732 5.303-2.197l30.487-30.487 10.607,10.607-76.943,76.943c-2.929,2.929-2.929,7.678 0,10.606l26.667,26.667-12.041,12.041c-25.787-18.545-56.636-28.558-89.03-28.558-8.921,0-17.895,0.784-26.671,2.331-2.755,0.485-5.01,2.463-5.852,5.13s-0.128,5.582 1.85,7.559l40.259,40.259-6.707,65.303c-0.23,2.245 0.562,4.474 2.158,6.069l21.213,21.213c1.414,1.414 3.324,2.197 5.303,2.197 0.255,0 0.511-0.013 0.767-0.039l65.303-6.706 40.259,40.259c1.428,1.428 3.345,2.197 5.304,2.197 0.753,0 1.514-0.114 2.255-0.347 2.667-0.841 4.645-3.097 5.13-5.852 6.893-39.12-1.763-79.01-23.341-111.435l12.73-12.73 23.091,23.091c1.464,1.464 3.384,2.197 5.303,2.197s3.839-0.732 5.303-2.197l76.943-76.943 10.607,10.607-30.487,30.487c-2.929,2.929-2.929,7.678 0,10.606l122.026,122.026c1.464,1.464 3.384,2.197 5.303,2.197s3.839-0.732 5.303-2.197l71.58-71.58c2.931-2.929 2.931-7.678 0.001-10.607zm-269.01-247.797l-13.253,13.253-50.407-50.407 13.253-13.253 50.407,50.407zm-172.392-50.446l13.253-13.253 34.497,34.497c1.464,1.464 3.384,2.197 5.303,2.197s3.839-0.732 5.303-2.197c2.929-2.929 2.929-7.678 0-10.606l-34.496-34.498 13.253-13.253 34.497,34.497c1.464,1.464 3.384,2.197 5.303,2.197s3.839-0.732 5.303-2.197c2.929-2.929 2.929-7.678 0-10.606l-34.497-34.498 13.253-13.253 50.407,50.406-18.554,18.553c-0.006,0.006-23.862,23.861-23.862,23.861-0.003,0.003-18.558,18.558-18.558,18.558l-50.405-50.405zm111.419,111.419l-50.407-50.407 13.253-13.253 50.407,50.407-13.253,13.253zm30.491-30.491c-0.01,0.01-6.632,6.632-6.632,6.632l-50.407-50.407 13.253-13.253 50.407,50.407-6.621,6.621zm156.304-74.62l34.027,34.027c1.464,1.464 3.384,2.197 5.303,2.197s3.839-0.732 5.303-2.197c2.929-2.929 2.929-7.678 0-10.606l-24.793-24.793 16.075,1.383c1.971,0.17 5.534,1.829 6.933,3.227l13.91,13.91c1.398,1.399 3.057,4.962 3.227,6.933l2.846,33.082-27.584,27.584-59.997-59.997 24.75-24.75zm-257.41,333.576l-16.169-16.169 5.095-49.613 60.687,60.687-49.613,5.095zm103.262,27.341l-146.772-146.772c3.058-0.203 6.12-0.305 9.176-0.305 31.183,0 60.783,10.28 84.933,29.232 0.05,0.041 0.1,0.081 0.151,0.121 4.325,3.404 8.478,7.082 12.43,11.034 28.231,28.233 42.679,67.248 40.082,106.69zm-19.383-106.135c-3.166-3.862-6.525-7.592-10.093-11.161-2.363-2.363-4.796-4.63-7.283-6.818l10.839-10.839 17.678,17.678-11.141,11.14zm50.141,6.647l-78.042-78.042 157.054-157.054 78.042,78.042-157.054,157.054zm78.276-14.637l13.253-13.253 34.497,34.497c1.464,1.464 3.384,2.197 5.303,2.197s3.839-0.732 5.303-2.197c2.929-2.929 2.929-7.678 0-10.606l-34.497-34.497 6.622-6.622c0.01-0.01 6.632-6.632 6.632-6.632l34.497,34.497c1.464,1.464 3.384,2.197 5.303,2.197s3.839-0.732 5.303-2.197c2.929-2.929 2.929-7.678 0-10.606l-34.497-34.497 13.253-13.253 50.406,50.406-60.973,60.973-50.405-50.407zm111.42,111.42l-50.406-50.406 13.253-13.253 50.406,50.406-13.253,13.253zm23.86-23.86l-50.406-50.406 13.253-13.253 50.406,50.406-13.253,13.253zm23.859-23.86l-50.406-50.406 13.253-13.253 50.406,50.406-13.253,13.253z" fill="#ffffff"/><path d="m27.301,421.486c-2.929-2.929-7.678-2.929-10.606,0-2.929,2.929-2.929,7.678 0,10.606l21.213,21.213c1.464,1.464 3.384,2.197 5.303,2.197s3.839-0.732 5.303-2.197c2.929-2.929 2.929-7.678 0-10.606l-21.213-21.213z" fill="#ffffff"/></g><g transform="matrix(0.127657949924469 0 0 0.127657949924469 25.99999937667019 33)" id="L1_6"><path d="m411.134,120h-12.812c-1.569-22.64-10.258-44.871-26.058-63.022l9.027-9.026c2.929-2.929 2.929-7.678 0-10.606-2.928-2.929-7.677-2.93-10.606-0.001l-9.024,9.023c-17.683-15.417-39.62-24.505-63.025-26.107v-12.761c0-4.143-3.358-7.5-7.5-7.5s-7.5,3.357-7.5,7.5v12.76c-23.405,1.603-45.342,10.69-63.025,26.107l-9.023-9.023c-2.929-2.928-7.678-2.929-10.606,0.001-2.929,2.929-2.929,7.678 0,10.606l8.838,8.838-45.526,45.527-8.838-8.838c-2.929-2.928-7.678-2.928-10.606,0-2.929,2.93-2.929,7.678 0,10.607l8.838,8.838-45.528,45.527-8.839-8.838c-2.929-2.928-7.678-2.929-10.606,0.001-2.929,2.929-2.929,7.678 0,10.606l9.026,9.026c-15.8,18.152-24.488,40.383-26.057,63.023h-12.812c-4.142,0-7.5,3.357-7.5,7.5s3.358,7.5 7.5,7.5h12.812c1.569,22.64 10.258,44.871 26.057,63.023l-26.704,26.704c-9.916,9.916-15.377,23.1-15.377,37.124 0,14.022 5.461,27.207 15.377,37.123 9.916,9.915 23.1,15.376 37.123,15.376s27.207-5.461 37.123-15.377l7.07-7.07c14.621-14.622 38.412-14.621 53.033-0.001 14.621,14.622 14.621,38.413 0,53.033-2.929,2.93-2.929,7.678 0,10.607 1.464,1.464 3.384,2.196 5.303,2.196s3.839-0.732 5.303-2.196c20.469-20.47 20.469-53.776 0-74.247-20.47-20.469-53.775-20.469-74.246,0.001l-7.07,7.07c-7.083,7.083-16.5,10.983-26.516,10.983s-19.434-3.9-26.516-10.983c-7.083-7.082-10.983-16.499-10.983-26.516 0-10.018 3.901-19.435 10.983-26.517l26.701-26.701c17.683,15.417 39.62,24.503 63.025,26.106v12.761c0,4.143 3.358,7.5 7.5,7.5s7.5-3.357 7.5-7.5v-12.761c23.405-1.602 45.342-10.689 63.025-26.106l9.023,9.023c1.464,1.464 3.384,2.196 5.303,2.196s3.839-0.732 5.303-2.197c2.929-2.929 2.929-7.678 0-10.606l-8.838-8.838 45.526-45.527 8.839,8.838c1.464,1.464 3.384,2.196 5.303,2.196s3.839-0.732 5.303-2.197c2.929-2.929 2.929-7.677 0-10.606l-8.838-8.838 45.526-45.527 8.839,8.838c1.464,1.464 3.384,2.196 5.303,2.196s3.839-0.732 5.303-2.197c2.929-2.929 2.929-7.678 0-10.606l-9.026-9.026c15.8-18.152 24.488-40.383 26.057-63.023h12.812c4.142,0 7.5-3.357 7.5-7.5s-3.357-7.499-7.499-7.499zm-54.592,72.907l-112.266,112.268c-17.471,17.471-40.699,27.093-65.407,27.093-24.707,0-47.936-9.622-65.406-27.093-36.065-36.065-36.065-94.749 0-130.814l112.266-112.268c17.467-17.468 40.689-27.089 65.391-27.094 24.733,0.004 47.955,9.625 65.422,27.094 36.065,36.065 36.065,94.749-5.68434e-14,130.814z" fill="#ffffff"/><circle cx="305" cy="149" r="7" fill="#ffffff"/><circle cx="305" cy="106" r="7" fill="#ffffff"/><path d="m236.336,72.698c-2.929,2.93-2.929,7.678 0,10.607 2.929,2.928 7.678,2.928 10.606,0 24.368-24.368 64.018-24.369 88.387-0.001 24.368,24.369 24.368,64.021 0,88.389l-112.265,112.268c-11.784,11.784-27.479,18.273-44.194,18.273s-32.41-6.489-44.193-18.273c-11.783-11.782-18.272-27.478-18.272-44.193s6.489-32.411 18.272-44.194l91.053-91.054c2.929-2.93 2.929-7.678 0-10.607-2.929-2.928-7.678-2.928-10.606,0l-91.053,91.054c-14.617,14.617-22.666,34.079-22.666,54.802s8.049,40.185 22.666,54.8c14.616,14.617 34.078,22.667 54.8,22.667 20.722,0 40.184-8.05 54.8-22.666l112.266-112.268c30.217-30.218 30.217-79.385 0-109.603-30.218-30.218-79.385-30.218-109.601-0.001z" fill="#ffffff"/><circle cx="164" cy="217" r="7" fill="#ffffff"/><path d="m218.236,196.865c-1.574,1.574-2.609,1.673-5.954,1.771-4.086,0.12-10.262,0.302-16.118,6.157-2.929,2.929-2.929,7.678 0,10.606 1.465,1.465 3.384,2.197 5.304,2.197 1.919,0 3.839-0.732 5.303-2.196 1.574-1.574 2.608-1.673 5.953-1.771 4.087-0.12 10.263-0.302 16.12-6.159 5.855-5.855 6.038-12.031 6.158-16.118 0.099-3.345 0.197-4.379 1.772-5.954 1.574-1.573 2.608-1.672 5.952-1.771 4.086-0.12 10.262-0.302 16.118-6.157 5.855-5.855 6.037-12.031 6.157-16.117 0.098-3.345 0.197-4.379 1.771-5.953 2.929-2.929 2.928-7.678-0.001-10.606-2.929-2.928-7.678-2.929-10.606,0.001-5.855,5.855-6.037,12.031-6.157,16.117-0.098,3.345-0.197,4.379-1.77,5.952-1.574,1.574-2.608,1.672-5.952,1.771-4.087,0.12-10.263,0.302-16.119,6.158-5.855,5.855-6.038,12.031-6.158,16.118-0.099,3.345-0.198,4.379-1.773,5.954z" fill="#ffffff"/></g><g transform="matrix(0.12765957415103912 0 0 0.12765957415103912 106 296)" id="L1_7"><path d="m311.25,353.75h-61.25c-4.143,0-7.5,3.358-7.5,7.5v61.25c0,4.142 3.357,7.5 7.5,7.5h61.25c4.143,0 7.5-3.358 7.5-7.5v-61.25c0-4.142-3.357-7.5-7.5-7.5zm-7.5,61.25h-46.25v-46.25h46.25v46.25z" fill="#ffffff"/><path d="m220,353.75h-61.25c-4.143,0-7.5,3.358-7.5,7.5v61.25c0,4.142 3.357,7.5 7.5,7.5h61.25c4.143,0 7.5-3.358 7.5-7.5v-61.25c0-4.142-3.357-7.5-7.5-7.5zm-7.5,61.25h-46.25v-46.25h46.25v46.25z" fill="#ffffff"/><path d="m220,262.5h-61.25c-4.143,0-7.5,3.358-7.5,7.5v61.25c0,4.142 3.357,7.5 7.5,7.5h61.25c4.143,0 7.5-3.358 7.5-7.5v-61.25c0-4.142-3.357-7.5-7.5-7.5zm-7.5,61.25h-46.25v-46.25h46.25v46.25z" fill="#ffffff"/><path d="m128.75,353.75h-61.25c-4.143,0-7.5,3.358-7.5,7.5v61.25c0,4.142 3.357,7.5 7.5,7.5h61.25c4.143,0 7.5-3.358 7.5-7.5v-61.25c0-4.142-3.357-7.5-7.5-7.5zm-7.5,61.25h-46.25v-46.25h46.25v46.25z" fill="#ffffff"/><path d="m402.5,202.5h-61.25c-4.143,0-7.5,3.358-7.5,7.5v30c0,4.142 3.357,7.5 7.5,7.5h61.25c4.143,0 7.5-3.358 7.5-7.5v-30c0-4.142-3.357-7.5-7.5-7.5zm-7.5,30h-46.25v-15h46.25v15z" fill="#ffffff"/><path d="m311.25,262.5h-61.25c-4.143,0-7.5,3.358-7.5,7.5v61.25c0,4.142 3.357,7.5 7.5,7.5h61.25c4.143,0 7.5-3.358 7.5-7.5v-61.25c0-4.142-3.357-7.5-7.5-7.5zm-7.5,61.25h-46.25v-46.25h46.25v46.25z" fill="#ffffff"/><path d="m128.75,262.5h-61.25c-4.143,0-7.5,3.358-7.5,7.5v61.25c0,4.142 3.357,7.5 7.5,7.5h61.25c4.143,0 7.5-3.358 7.5-7.5v-61.25c0-4.142-3.357-7.5-7.5-7.5zm-7.5,61.25h-46.25v-46.25h46.25v46.25z" fill="#ffffff"/><path d="m311.25,202.5h-61.25c-4.143,0-7.5,3.358-7.5,7.5v30c0,4.142 3.357,7.5 7.5,7.5h61.25c4.143,0 7.5-3.358 7.5-7.5v-30c0-4.142-3.357-7.5-7.5-7.5zm-7.5,30h-46.25v-15h46.25v15z" fill="#ffffff"/><path d="M402.5,0h-335C46.822,0,30,16.822,30,37.5v395c0,20.678,16.822,37.5,37.5,37.5h335c20.678,0,37.5-16.822,37.5-37.5v-395   C440,16.822,423.178,0,402.5,0z M425,432.5c0,12.407-10.094,22.5-22.5,22.5h-335C55.094,455,45,444.907,45,432.5v-395   C45,25.093,55.094,15,67.5,15h335c12.406,0,22.5,10.093,22.5,22.5V432.5z" fill="#ffffff"/><path d="m402.5,262.5h-61.25c-4.143,0-7.5,3.358-7.5,7.5v152.5c0,4.142 3.357,7.5 7.5,7.5h61.25c4.143,0 7.5-3.358 7.5-7.5v-92.5c0-4.142-3.357-7.5-7.5-7.5s-7.5,3.358-7.5,7.5v85h-46.25v-137.5h46.25v22.5c0,4.142 3.357,7.5 7.5,7.5s7.5-3.358 7.5-7.5v-30c0-4.142-3.357-7.5-7.5-7.5z" fill="#ffffff"/><path d="M402.5,40h-335c-4.143,0-7.5,3.358-7.5,7.5V170c0,4.142,3.357,7.5,7.5,7.5h61.25c4.143,0,7.5-3.358,7.5-7.5   s-3.357-7.5-7.5-7.5H75V55h320v107.5H158.75c-4.143,0-7.5,3.358-7.5,7.5s3.357,7.5,7.5,7.5H402.5c4.143,0,7.5-3.358,7.5-7.5V47.5   C410,43.358,406.643,40,402.5,40z" fill="#ffffff"/><path d="m342.5,85h30c4.143,0 7.5-3.358 7.5-7.5s-3.357-7.5-7.5-7.5h-30c-4.143,0-7.5,3.358-7.5,7.5s3.357,7.5 7.5,7.5z" fill="#ffffff"/><path d="m342.5,145h30c4.143,0 7.5-3.358 7.5-7.5s-3.357-7.5-7.5-7.5h-30c-4.143,0-7.5,3.358-7.5,7.5s3.357,7.5 7.5,7.5z" fill="#ffffff"/><path d="m335,117.5c0,4.142 3.357,7.5 7.5,7.5s7.5-3.358 7.5-7.5v-20c0-4.142-3.357-7.5-7.5-7.5s-7.5,3.358-7.5,7.5v20z" fill="#ffffff"/></g></defs><g fi:class="KUsePattern" opacity="0.2"><pattern id="pattern_L1_0" width="350" height="350" patternUnits="userSpaceOnUse"><use xlink:href="#L1_0" x="-350" y="-350"/><use xlink:href="#L1_0" x="0" y="-350"/><use xlink:href="#L1_0" x="350" y="-350"/><use xlink:href="#L1_0" x="-350" y="0"/><use xlink:href="#L1_0" x="0" y="0"/><use xlink:href="#L1_0" x="350" y="0"/><use xlink:href="#L1_0" x="-350" y="350"/><use xlink:href="#L1_0" x="0" y="350"/><use xlink:href="#L1_0" x="350" y="350"/></pattern><rect x="0" y="0" width="100%" height="100%" fill="url(#pattern_L1_0)"/></g><g fi:class="KUsePattern" opacity="0.2"><pattern id="pattern_L1_1" width="350" height="350" patternUnits="userSpaceOnUse"><use xlink:href="#L1_1" x="-350" y="-350"/><use xlink:href="#L1_1" x="0" y="-350"/><use xlink:href="#L1_1" x="350" y="-350"/><use xlink:href="#L1_1" x="-350" y="0"/><use xlink:href="#L1_1" x="0" y="0"/><use xlink:href="#L1_1" x="350" y="0"/><use xlink:href="#L1_1" x="-350" y="350"/><use xlink:href="#L1_1" x="0" y="350"/><use xlink:href="#L1_1" x="350" y="350"/></pattern><rect x="0" y="0" width="100%" height="100%" fill="url(#pattern_L1_1)"/></g><g fi:class="KUsePattern" opacity="0.2"><pattern id="pattern_L1_2" width="350" height="350" patternUnits="userSpaceOnUse"><use xlink:href="#L1_2" x="-350" y="-350"/><use xlink:href="#L1_2" x="0" y="-350"/><use xlink:href="#L1_2" x="350" y="-350"/><use xlink:href="#L1_2" x="-350" y="0"/><use xlink:href="#L1_2" x="0" y="0"/><use xlink:href="#L1_2" x="350" y="0"/><use xlink:href="#L1_2" x="-350" y="350"/><use xlink:href="#L1_2" x="0" y="350"/><use xlink:href="#L1_2" x="350" y="350"/></pattern><rect x="0" y="0" width="100%" height="100%" fill="url(#pattern_L1_2)"/></g><g fi:class="KUsePattern" opacity="0.2"><pattern id="pattern_L1_3" width="350" height="350" patternUnits="userSpaceOnUse"><use xlink:href="#L1_3" x="-350" y="-350"/><use xlink:href="#L1_3" x="0" y="-350"/><use xlink:href="#L1_3" x="350" y="-350"/><use xlink:href="#L1_3" x="-350" y="0"/><use xlink:href="#L1_3" x="0" y="0"/><use xlink:href="#L1_3" x="350" y="0"/><use xlink:href="#L1_3" x="-350" y="350"/><use xlink:href="#L1_3" x="0" y="350"/><use xlink:href="#L1_3" x="350" y="350"/></pattern><rect x="0" y="0" width="100%" height="100%" fill="url(#pattern_L1_3)"/></g><g fi:class="KUsePattern" opacity="0.2"><pattern id="pattern_L1_4" width="350" height="350" patternUnits="userSpaceOnUse"><use xlink:href="#L1_4" x="-350" y="-350"/><use xlink:href="#L1_4" x="0" y="-350"/><use xlink:href="#L1_4" x="350" y="-350"/><use xlink:href="#L1_4" x="-350" y="0"/><use xlink:href="#L1_4" x="0" y="0"/><use xlink:href="#L1_4" x="350" y="0"/><use xlink:href="#L1_4" x="-350" y="350"/><use xlink:href="#L1_4" x="0" y="350"/><use xlink:href="#L1_4" x="350" y="350"/></pattern><rect x="0" y="0" width="100%" height="100%" fill="url(#pattern_L1_4)"/></g><g fi:class="KUsePattern" opacity="0.2"><pattern id="pattern_L1_5" width="350" height="350" patternUnits="userSpaceOnUse"><use xlink:href="#L1_5" x="-350" y="-350"/><use xlink:href="#L1_5" x="0" y="-350"/><use xlink:href="#L1_5" x="350" y="-350"/><use xlink:href="#L1_5" x="-350" y="0"/><use xlink:href="#L1_5" x="0" y="0"/><use xlink:href="#L1_5" x="350" y="0"/><use xlink:href="#L1_5" x="-350" y="350"/><use xlink:href="#L1_5" x="0" y="350"/><use xlink:href="#L1_5" x="350" y="350"/></pattern><rect x="0" y="0" width="100%" height="100%" fill="url(#pattern_L1_5)"/></g><g fi:class="KUsePattern" opacity="0.2"><pattern id="pattern_L1_6" width="350" height="350" patternUnits="userSpaceOnUse"><use xlink:href="#L1_6" x="-350" y="-350"/><use xlink:href="#L1_6" x="0" y="-350"/><use xlink:href="#L1_6" x="350" y="-350"/><use xlink:href="#L1_6" x="-350" y="0"/><use xlink:href="#L1_6" x="0" y="0"/><use xlink:href="#L1_6" x="350" y="0"/><use xlink:href="#L1_6" x="-350" y="350"/><use xlink:href="#L1_6" x="0" y="350"/><use xlink:href="#L1_6" x="350" y="350"/></pattern><rect x="0" y="0" width="100%" height="100%" fill="url(#pattern_L1_6)"/></g><g fi:class="KUsePattern" opacity="0.2"><pattern id="pattern_L1_7" width="350" height="350" patternUnits="userSpaceOnUse"><use xlink:href="#L1_7" x="-350" y="-350"/><use xlink:href="#L1_7" x="0" y="-350"/><use xlink:href="#L1_7" x="350" y="-350"/><use xlink:href="#L1_7" x="-350" y="0"/><use xlink:href="#L1_7" x="0" y="0"/><use xlink:href="#L1_7" x="350" y="0"/><use xlink:href="#L1_7" x="-350" y="350"/><use xlink:href="#L1_7" x="0" y="350"/><use xlink:href="#L1_7" x="350" y="350"/></pattern><rect x="0" y="0" width="100%" height="100%" fill="url(#pattern_L1_7)"/></g></svg>