<svg xmlns="http://www.w3.org/2000/svg" xmlns:xlink="http://www.w3.org/1999/xlink" xmlns:fi="http://pattern.flaticon.com/" x="0" y="0" width="700" height="350" viewBox="0 0 700 350"><rect x="0px" y="0px" width="100%" height="100%" opacity="0" fill="#ffffff"/><defs><g transform="matrix(0.12765957415103912 0 0 0.12765957415103912 110 169.99999831698813)" id="L1_0"><path d="m398.559,166.02c-8.85-3.404-18.292-6.493-28.22-9.265 2.563-9.984 4.609-19.706 6.087-29.073 7.689-48.757-0.808-82.959-23.925-96.306-6.72-3.88-14.443-5.848-22.954-5.848-26.882,0-60.85,19.965-95.118,53.681-7.486-7.352-15.006-14.105-22.502-20.167-38.379-31.038-72.25-40.781-95.365-27.434-14.856,8.577-23.891,26.093-26.126,50.652-0.376,4.125 2.664,7.773 6.789,8.148 4.138,0.382 7.772-2.664 8.148-6.789 1.238-13.594 5.484-31.398 18.688-39.021 17.11-9.881 45.699-0.365 78.434,26.106 7.143,5.776 14.314,12.217 21.461,19.233-14.373,15.293-28.676,32.894-42.41,52.347-24.16,2.199-47.172,5.888-68.291,10.948-3.698-14.376-6.238-28.093-7.491-40.827-0.405-4.122-4.059-7.134-8.198-6.729-4.122,0.405-7.135,4.076-6.729,8.198 1.326,13.474 4.008,27.966 7.917,43.133-9.596,2.706-18.73,5.712-27.311,9.012-46.072,17.72-71.443,42.18-71.443,68.873s25.371,51.153 71.441,68.872c8.85,3.404 18.292,6.493 28.22,9.265-2.563,9.984-4.609,19.706-6.087,29.073-7.689,48.757 0.808,82.959 23.925,96.306 6.72,3.88 14.443,5.848 22.954,5.848 26.573,0 60.071-19.516 93.938-52.531 7.255,7.086 14.54,13.609 21.803,19.482 27.161,21.966 52.059,33.266 72.489,33.265 8.438-0.001 16.119-1.93 22.876-5.831 23.117-13.347 31.614-47.549 23.925-96.306-1.477-9.366-3.523-19.087-6.086-29.07 15.439-4.252 29.64-9.26 42.218-14.96 3.773-1.71 5.445-6.154 3.735-9.927-1.71-3.773-6.155-5.446-9.927-3.735-11.912,5.398-25.377,10.15-40.042,14.192-6.063-20.261-14.137-41.412-23.976-62.808 10.281-22.122 18.685-44.004 24.943-64.936 55.665,15.586 88.651,40.202 88.651,63.801 0,15.247-13.296,27.827-24.45,35.694-3.385,2.388-4.193,7.067-1.806,10.452 2.388,3.386 7.067,4.193 10.452,1.806 20.153-14.215 30.804-30.797 30.804-47.952 0-26.693-25.371-51.153-71.441-68.872zm-69.013-125.491c5.844,7.10543e-15 11.044,1.291 15.454,3.838 17.112,9.88 23.166,39.396 16.607,80.979-1.405,8.907-3.35,18.159-5.789,27.669-21.207-5.028-44.299-8.68-68.532-10.835-13.596-19.242-27.866-36.839-42.375-52.253 2.655-2.618 5.312-5.158 7.964-7.602 29.252-26.953 56.48-41.796 76.671-41.796zm-95.096,60.152c11.317,12.062 22.5,25.517 33.323,40.102-10.769-0.587-21.712-0.891-32.773-0.891-11.431,0-22.738,0.321-33.855,0.947 10.808-14.56 22.006-28.07 33.305-40.158zm-.053,269.657c-11.718-12.42-23.296-26.341-34.486-41.466 11.514,0.674 23.234,1.02 35.089,1.02 11.419,0 22.732-0.333 33.871-0.969-11.18,15.064-22.777,29.01-34.474,41.415zm.603-55.446c-16.115,0-31.578-0.624-46.314-1.784-8.277-12.076-16.284-24.78-23.907-37.984-7.503-12.995-14.405-26.107-20.657-39.155 6.49-13.661 13.707-27.412 21.596-41.077 7.64-13.232 15.75-26.063 24.177-38.307 14.374-1.099 29.429-1.693 45.105-1.693 15.273,0 29.956,0.564 43.994,1.609 8.434,12.267 16.59,25.185 24.349,38.623 7.85,13.597 15.034,27.279 21.5,40.873-6.219,12.942-13.091,25.957-20.56,38.894-7.625,13.207-15.72,26.015-24.13,38.239-14.716,1.158-29.83,1.762-45.153,1.762zm-65.615-3.655c-18.453-2.132-35.582-5.129-51.205-8.81 4.744-15.789 10.758-32.16 17.929-48.79 4.898,9.688 10.128,19.373 15.679,28.987 5.668,9.818 11.549,19.371 17.597,28.613zm1.19-152.829c-6.111,9.318-12.078,18.991-17.847,28.984-5.933,10.276-11.499,20.61-16.677,30.928-7.543-17.318-13.858-34.376-18.788-50.749 16.203-3.859 34.042-6.983 53.312-9.163zm-155.575,76.484c0-23.472 32.634-47.951 87.757-63.55 6.235,20.802 14.601,42.62 24.805,64.647-9.813,21.362-17.865,42.477-23.913,62.705-55.663-15.587-88.649-40.203-88.649-63.802zm125.454,194.363c-5.844,0-11.044-1.291-15.454-3.838-17.112-9.88-23.166-39.396-16.607-80.979 1.405-8.907 3.35-18.159 5.789-27.669 20.518,4.865 42.8,8.441 66.173,10.619 13.951,19.807 28.618,37.883 43.53,53.648-2.254,2.201-4.509,4.348-6.76,6.423-29.252,26.954-56.48,41.796-76.671,41.796zm220.214-84.584c6.559,41.583 0.505,71.099-16.607,80.979-17.113,9.879-45.699,0.364-78.434-26.106-6.893-5.574-13.814-11.767-20.712-18.499 14.761-15.578 29.462-33.603 43.563-53.579 23.432-2.151 45.822-5.697 66.389-10.509 2.445,9.526 4.394,18.793 5.801,27.714zm-9.83-42.153c-16.064,3.733-33.311,6.67-51.339,8.745 6.085-9.283 12.027-18.918 17.773-28.871 5.517-9.556 10.713-19.161 15.579-28.757 7.195,16.66 13.228,33.063 17.987,48.883zm-17.918-84.145c-5.152-10.259-10.688-20.532-16.587-30.749-5.818-10.078-11.859-19.878-18.077-29.348 19.355,2.146 37.276,5.243 53.564,9.081-4.955,16.493-11.302,33.623-18.9,51.016z" fill="#eeff2e"/><path d="m235,197.392c-20.678,0-37.5,16.822-37.5,37.5s16.822,37.5 37.5,37.5 37.5-16.822 37.5-37.5-16.822-37.5-37.5-37.5zm0,60c-12.406,0-22.5-10.094-22.5-22.5s10.094-22.5 22.5-22.5 22.5,10.094 22.5,22.5-10.094,22.5-22.5,22.5z" fill="#eeff2e"/></g><g transform="matrix(0.12765251100063324 0 0 0.12765251100063324 304 243)" id="L1_1"><path d="m463.413,137.401l-130.812-130.811c-4.25-4.25-9.899-6.59-15.909-6.59-6.011,0-11.66,2.341-15.909,6.59-4.25,4.25-6.591,9.9-6.591,15.911 0,5.156 1.734,10.041 4.926,14.029l-271.306,271.323c-37.037,37.04-37.036,97.308 0.002,134.348 17.942,17.943 41.797,27.825 67.17,27.826 25.374,0 49.229-9.882 67.17-27.824l271.306-271.323c3.975,3.189 8.873,4.931 14.042,4.931 6.01,0 11.66-2.341 15.91-6.59 8.772-8.773 8.772-23.047 0.001-31.82zm-10.608,21.213c-1.416,1.417-3.3,2.197-5.303,2.197s-3.887-0.78-5.303-2.197l-2.353-2.352c-0.295-0.47-0.641-0.917-1.05-1.326-0.409-0.409-0.857-0.755-1.327-1.05l-80.124-80.123c-2.929-2.928-7.677-2.93-10.607,0-2.929,2.929-2.929,7.678 0,10.606l76.01,76.01-271.201,271.217c-15.108,15.109-35.196,23.43-56.562,23.43-21.367,0-41.455-8.322-56.564-23.432-31.19-31.192-31.191-81.944-0.002-113.135l271.247-271.263 16.028,15.85c2.944,2.912 7.692,2.887 10.606-0.059 2.912-2.945 2.886-7.694-0.06-10.606l-20.205-19.982c-0.278-0.426-0.603-0.83-0.977-1.204-0.391-0.391-0.817-0.726-1.264-1.013l-2.406-2.379c-1.416-1.417-2.196-3.3-2.196-5.303 0-2.003 0.78-3.887 2.197-5.304 1.416-1.417 3.299-2.197 5.303-2.197 2.003,0 3.887,0.78 5.303,2.197l130.811,130.811c2.924,2.925 2.924,7.683-0.001,10.607z" fill="#eeff2e"/><path d="m277.854,273.457c-6.746-6.745-13.064-7.879-17.679-8.708-3.93-0.705-6.302-1.131-9.72-4.55-3.419-3.418-3.845-5.791-4.549-9.72-0.828-4.614-1.962-10.933-8.707-17.678s-13.064-7.88-17.678-8.708c-3.93-0.706-6.303-1.131-9.722-4.551-3.419-3.419-3.845-5.792-4.551-9.723-0.828-4.614-1.962-10.933-8.708-17.679-1.406-1.407-3.314-2.197-5.303-2.197s-3.897,0.791-5.304,2.197l-57.848,57.854c-2.929,2.929-2.928,7.678 0,10.607 2.93,2.929 7.678,2.928 10.607,0l51.178-51.183c0.232,0.93 0.412,1.928 0.613,3.052 0.828,4.614 1.962,10.933 8.708,17.679 6.745,6.746 13.064,7.88 17.678,8.708 3.93,0.706 6.303,1.131 9.722,4.551 3.418,3.418 3.844,5.791 4.549,9.721 0.828,4.614 1.961,10.933 8.706,17.678 6.745,6.745 13.063,7.879 17.678,8.708 1.124,0.202 2.121,0.381 3.052,0.613l-130.239,130.251c-9.425,9.426-21.98,14.618-35.353,14.618-13.372,0-25.927-5.191-35.352-14.618-19.494-19.495-19.494-51.215 0-70.71l57.849-57.854c2.929-2.929 2.928-7.678 0-10.607-2.93-2.929-7.678-2.928-10.607,0l-57.849,57.854c-25.341,25.343-25.341,66.58 0,91.923 12.259,12.26 28.581,19.011 45.959,19.011 17.379,0 33.701-6.751 45.96-19.011l136.517-136.53c4.295-4.296 2.308-8.891 0.656-10.721-0.084-0.094-0.173-0.187-0.263-0.277z" fill="#eeff2e"/><path d="m338.839,161.218c-2.93,2.929-2.93,7.678-0.001,10.607 2.925,2.924 2.925,7.682 0,10.606-1.416,1.417-3.299,2.196-5.303,2.196-2.003,0-3.887-0.78-5.303-2.197-2.925-2.924-2.925-7.682-0.001-10.606 2.93-2.929 2.93-7.678 0.001-10.607-2.929-2.928-7.678-2.929-10.606,0-8.773,8.772-8.773,23.046-0.001,31.82 4.25,4.25 9.899,6.59 15.91,6.59s11.661-2.34 15.91-6.59c8.771-8.772 8.772-23.046 0-31.819-2.928-2.927-7.677-2.928-10.606,0z" fill="#eeff2e"/><path d="m250.45,201.392c6.011,0 11.661-2.34 15.91-6.59s6.59-9.9 6.589-15.91c0-6.01-2.341-11.66-6.591-15.91-2.928-2.929-7.677-2.928-10.606,0-2.929,2.929-2.929,7.678 0.001,10.607 1.416,1.417 2.196,3.3 2.196,5.303 0,2.003-0.779,3.886-2.196,5.303-1.416,1.417-3.299,2.196-5.303,2.196-2.003,0-3.887-0.78-5.303-2.197-1.417-1.417-2.197-3.3-2.197-5.303s0.78-3.887 2.197-5.303c2.929-2.929 2.929-7.678 0-10.606-2.93-2.929-7.678-2.929-10.607,0-8.773,8.772-8.773,23.047 0,31.819 4.249,4.25 9.899,6.591 15.91,6.591z" fill="#eeff2e"/></g><g transform="matrix(0.1276514232158661 0 0 0.1276514232158661 -18 53.999996260212356)" id="L1_2"><path d="m377.53,189.821v-114.948c11.234-1.248 20-10.796 20-22.358 0-12.407-10.093-22.5-22.5-22.5h-100c-12.407,0-22.5,10.093-22.5,22.5 0,11.561 8.766,21.11 20,22.358v114.95c-22.675,8.812-42.852,23.265-58.606,42.033-2.664,3.173-2.25,7.903 0.922,10.566 1.406,1.18 3.117,1.756 4.818,1.756 2.14,0 4.265-0.911 5.748-2.678 15.171-18.073 34.906-31.682 57.072-39.356 3.021-1.046 5.046-3.891 5.046-7.087v-120.042h42.5c4.142,0 7.5-3.358 7.5-7.5s-3.358-7.5-7.5-7.5h-55c-4.136,0-7.5-3.364-7.5-7.5s3.364-7.5 7.5-7.5h100c4.136,0 7.5,3.364 7.5,7.5s-3.364,7.5-7.5,7.5h-15c-4.142,0-7.5,3.358-7.5,7.5s3.358,7.5 7.5,7.5h2.5v120.041c0,3.196 2.026,6.042 5.046,7.087 52.309,18.11 87.454,67.488 87.454,122.871 0,71.682-58.318,130-130,130-16.899,0-33.349-3.202-48.892-9.516-3.836-1.56-8.212,0.288-9.771,4.125-1.559,3.837 0.289,8.212 4.126,9.771 17.345,7.046 35.693,10.619 54.537,10.619 79.953,0 145-65.047 145-145 5.68434e-14-59.971-36.952-113.631-92.5-135.192z" fill="#eeff2e"/><circle cx="380" cy="351" r="7" fill="#eeff2e"/><circle cx="350" cy="381" r="7" fill="#eeff2e"/><path d="m282.67,415.62c-3.749-1.755-8.215-0.14-9.973,3.611-1.757,3.751-0.14,8.216 3.611,9.973 15.316,7.174 31.708,10.812 48.722,10.812 63.411,0 115-51.589 115-115 0-20.213-5.323-40.098-15.394-57.506-1.528-2.641-4.501-4.096-7.525-3.672l-2.73,.38c-0.342,0.047-0.682,0.119-1.014,0.213-11.338,3.218-17.453,8.129-22.366,12.075-5.443,4.372-9.04,7.26-19.416,7.26-8.861,0-12.859-3.435-18.393-8.189-6.125-5.262-13.748-11.811-28.167-11.811-14.418,0-22.04,6.549-28.165,11.812-5.533,4.754-9.53,8.188-18.389,8.188-10.375,0-13.97-2.888-19.413-7.26-4.913-3.946-11.027-8.857-22.363-12.075-0.333-0.095-0.672-0.166-1.015-0.213l-2.73-.38c-3.018-0.423-5.984,1.024-7.515,3.655-0.065,0.111-0.128,0.224-0.197,0.352-2.064,3.591-0.826,8.176 2.765,10.24 1.56,0.896 3.306,1.17 4.953,0.898l.125,.018c8.09,2.378 12.219,5.694 16.584,9.201 6.466,5.194 13.153,10.565 28.806,10.565 14.418,0 22.04-6.549 28.165-11.812 5.533-4.754 9.53-8.188 18.389-8.188 8.861,0 12.859,3.435 18.393,8.189 6.125,5.262 13.748,11.811 28.167,11.811 15.654,0 22.341-5.371 28.809-10.564 3.853-3.095 7.52-6.04 13.89-8.325 7.045,13.921 10.747,29.414 10.747,45.139 0,55.14-44.86,100-100,100-14.799-0.002-29.051-3.163-42.361-9.397z" fill="#eeff2e"/><path d="m181.03,193.796v-148.923c11.234-1.248 20-10.796 20-22.358 0-12.407-10.093-22.5-22.5-22.5h-100c-12.407,0-22.5,10.093-22.5,22.5 0,11.561 8.766,21.11 20,22.358v120.184c0,4.142 3.358,7.5 7.5,7.5s7.5-3.358 7.5-7.5v-120.042h42.5c4.142,0 7.5-3.358 7.5-7.5s-3.358-7.5-7.5-7.5h-55c-4.136,0-7.5-3.364-7.5-7.5s3.364-7.5 7.5-7.5h100c4.136,0 7.5,3.364 7.5,7.5s-3.364,7.5-7.5,7.5h-15c-4.142,0-7.5,3.358-7.5,7.5s3.358,7.5 7.5,7.5h2.5v150.042c0,0.834 0.139,1.663 0.412,2.451l72.889,210.754c4.402,12.728 3.409,24.535-2.795,33.246-6.205,8.71-17.038,13.508-30.505,13.508h-155c-13.467,0-24.301-4.797-30.506-13.508-6.204-8.711-7.197-20.518-2.795-33.245l72.889-210.753c1.354-3.915-0.722-8.186-4.636-9.54-3.914-1.353-8.186,0.722-9.54,4.636l-72.89,210.753c-6.032,17.439-4.343,34.078 4.754,46.85 9.097,12.772 24.27,19.806 42.723,19.806h155c18.453,0 33.626-7.034 42.723-19.806 9.097-12.772 10.786-29.411 4.754-46.85l-72.477-209.563z" fill="#eeff2e"/><path d="m64.652,348.792c-1.91-1.481-4.419-1.953-6.734-1.263-2.317,0.689-4.161,2.453-4.951,4.738l-21.062,60.899c-2.772,8.016-2.475,14.991 0.837,19.64 3.312,4.649 9.806,7.21 18.288,7.21h155c8.481,0 14.976-2.561 18.287-7.21 3.313-4.649 3.61-11.625 0.837-19.64l-21.063-60.901c-0.79-2.285-2.633-4.048-4.95-4.737-2.317-0.69-4.825-0.219-6.734,1.263-4.091,3.173-7.964,5.601-17.323,5.601-8.86,0-12.859-3.435-18.393-8.189-6.125-5.262-13.748-11.811-28.167-11.811-14.418,0-22.04,6.549-28.165,11.812-5.533,4.754-9.53,8.188-18.39,8.188-9.356-0.002-13.228-2.428-17.317-5.6zm45.483,8.787c5.533-4.754 9.53-8.188 18.389-8.188 8.861,0 12.859,3.435 18.393,8.189 6.125,5.262 13.748,11.811 28.167,11.811 7.84,0 13.484-1.404 17.89-3.379l18.004,52.057c1.064,3.077 1.123,5.092 1.018,5.961-0.787,0.383-2.71,0.986-5.966,0.986h-155c-3.256,0-5.179-0.603-5.966-0.986-0.105-0.869-0.046-2.884 1.018-5.961l18.003-52.055c4.404,1.975 10.047,3.378 17.885,3.378 14.419-0.002 22.041-6.551 28.165-11.813z" fill="#eeff2e"/></g></defs><g fi:class="KUsePattern"><pattern id="pattern_L1_1" width="350" height="350" patternUnits="userSpaceOnUse"><use xlink:href="#L1_1" x="-350" y="-350"/><use xlink:href="#L1_1" x="0" y="-350"/><use xlink:href="#L1_1" x="350" y="-350"/><use xlink:href="#L1_1" x="-350" y="0"/><use xlink:href="#L1_1" x="0" y="0"/><use xlink:href="#L1_1" x="350" y="0"/><use xlink:href="#L1_1" x="-350" y="350"/><use xlink:href="#L1_1" x="0" y="350"/><use xlink:href="#L1_1" x="350" y="350"/></pattern><rect x="0" y="0" width="100%" height="100%" fill="url(#pattern_L1_1)"/></g><g fi:class="KUsePattern"><pattern id="pattern_L1_2" width="350" height="350" patternUnits="userSpaceOnUse"><use xlink:href="#L1_2" x="-350" y="-350"/><use xlink:href="#L1_2" x="0" y="-350"/><use xlink:href="#L1_2" x="350" y="-350"/><use xlink:href="#L1_2" x="-350" y="0"/><use xlink:href="#L1_2" x="0" y="0"/><use xlink:href="#L1_2" x="350" y="0"/><use xlink:href="#L1_2" x="-350" y="350"/><use xlink:href="#L1_2" x="0" y="350"/><use xlink:href="#L1_2" x="350" y="350"/></pattern><rect x="0" y="0" width="100%" height="100%" fill="url(#pattern_L1_2)"/></g><g fi:class="KUsePattern"><pattern id="pattern_L1_0" width="350" height="350" patternUnits="userSpaceOnUse"><use xlink:href="#L1_0" x="-350" y="-350"/><use xlink:href="#L1_0" x="0" y="-350"/><use xlink:href="#L1_0" x="350" y="-350"/><use xlink:href="#L1_0" x="-350" y="0"/><use xlink:href="#L1_0" x="0" y="0"/><use xlink:href="#L1_0" x="350" y="0"/><use xlink:href="#L1_0" x="-350" y="350"/><use xlink:href="#L1_0" x="0" y="350"/><use xlink:href="#L1_0" x="350" y="350"/></pattern><rect x="0" y="0" width="100%" height="100%" fill="url(#pattern_L1_0)"/></g></svg>