<?xml version="1.0" encoding="utf-8"?>
<!-- Generator: Adobe Illustrator 22.1.0, SVG Export Plug-In . SVG Version: 6.00 Build 0)  -->
<svg version="1.1" xmlns="http://www.w3.org/2000/svg" xmlns:xlink="http://www.w3.org/1999/xlink" x="0px" y="0px"
	 viewBox="0 0 1280 1280" style="enable-background:new 0 0 1280 1280;" xml:space="preserve">
<style type="text/css">
	.st0{display:none;}
	.st1{display:inline;fill:#E83D3D;}
	.st2{display:inline;}
	.st3{fill:#56B518;}
	.st4{display:inline;fill:#56B518;}
	.st5{fill:#E89213;}
	.st6{fill:#D80000;}
	.st7{fill:url(#SVGID_1_);}
	.st8{opacity:0.5;fill:url(#SVGID_2_);}
	.st9{opacity:0.25;fill:url(#SVGID_3_);}
	.st10{display:none;opacity:0.5;fill:url(#SVGID_4_);}
	.st11{fill:url(#SVGID_5_);}
	.st12{fill:url(#SVGID_6_);}
	.st13{fill:#FFFFFF;}
</style>
<g id="Слой_2">
</g>
<g id="Слой_1">
	<g class="st0">
		<path class="st1" d="M1140.7,791c0.8,0.8,1.9,0.7,2.9,0.2c5.9-2.8-40.2-46-52.3-52.8c-34.3-19.4-73.4-20.5-111.5-13.9
			c-121.2,21-227.2,84.3-355.1,68.1c-95.9-12.1-160.2-76.4-222.7-144.8c-23.3-25.5-64.7-100.1-104.3-98.4
			c-32.9,1.4-47.6,48.4-57.4,72.9c-42.1,105.3-7.8,167.9,84.1,230.3c101.5,69,214.8,101.6,337.2,91.5
			c125.7-10.3,221.7-54.5,321.3-128.4c30.6-22.6,77.5-61.9,120.2-49.9C1109.2,767.5,1135.6,786,1140.7,791z"/>
		<g class="st2">
			<path class="st3" d="M265.1,812.7c0.3,0.1,0.6,0.2,0.9,0.2C265.8,812.9,265.5,812.8,265.1,812.7z"/>
			<path class="st3" d="M264.3,812.5c0.1,0,0.3,0.1,0.4,0.1C264.6,812.6,264.4,812.5,264.3,812.5z"/>
			<path class="st3" d="M263.5,812.3c0.3,0.1,0.5,0.1,0.8,0.2C263.9,812.4,263.6,812.3,263.5,812.3z"/>
			<path class="st3" d="M263.4,812.3C263.4,812.3,263.5,812.3,263.4,812.3C263.5,812.3,263.5,812.3,263.4,812.3z"/>
			<path class="st3" d="M264.7,812.6c0.1,0,0.3,0.1,0.4,0.1C265,812.7,264.8,812.7,264.7,812.6z"/>
			<path class="st3" d="M266.3,813.1C266.3,813.1,266.3,813.1,266.3,813.1L266.3,813.1z"/>
			<path class="st3" d="M266.1,813c0.1,0,0.2,0.1,0.2,0.1C266.3,813.1,266.2,813,266.1,813z"/>
			<path class="st3" d="M266,813c0,0,0.1,0,0.1,0C266,813,266,813,266,813z"/>
			<path class="st3" d="M360.6,685.7c-21.5-13.4-82.3-50.3-88-78.3c-3.3-16,10.2-44.2,23.6-51.3c18.2-9.6,46.4-0.1,66.3-3.7
				c-28.6-9.4-54-39-85.6-37.5c-45,2.1-78.5,58.4-90.9,95.8c-11.4,34.3-17.1,83.8-4.8,119.1c12.9,37,51.8,55.7,69.5,89.6
				c-5.2-47.4-38.8-84.5-4.3-130.3C269.4,658.5,328.3,679.1,360.6,685.7z"/>
		</g>
		<path class="st4" d="M204.4,620.7c-1.3,1.3-3.3,1.7-5.1,1.2c-30.7-9.6-60.1-25.7-80.7-47.4c-20.1-21.3-22.3-59.6-40.6-82.6
			c-1.7-2.1-1.4-5.1,0.5-6.9l16.3-15.5c2.2-2.1,5.7-1.9,7.6,0.5c18.1,23.4,20.7,61.4,40.9,82.8c19.3,20.4,44.2,33,74.9,44.5
			c3.6,1.3,4.5,5.9,1.7,8.6L204.4,620.7z"/>
	</g>
	<g>
		<g>
			<path class="st5" d="M468.9,413.4c0,0-154.4-31.4-188.7,162.8C260.8,685.4,332,770.3,414.9,829.9
				c125.2,90.1,373.3,127.3,496.3,76.2C1012.7,864,1050,820,1049.9,692.7c-0.1-85.4-135.5-149.1-135.5-149.1s81.2,89.9-44,90.4
				c-89,0.4-73.3-80.6-61.5-128.8c54.2-111.8-67.6-171.5-67.6-171.5c0,0,37.7,36-6.8,54.7c-6.2,2.6-39.5,0.6-46.6-1.8
				c-32.9-11.2-65.4-28.2-58.7-60.5c6.9-32.9,48.6-42.6,58.6-44.9c-57.9-16.6-99.2,15.9-108.2,24.5c-26.1,24.8-43.3,66.5-28.2,182.5
				c9.1,69.5-58.9,92.5-87.3,75.5C382.1,514.3,397.5,448.5,468.9,413.4z"/>
		</g>
		<g>
			<path class="st6" d="M592.4,359.1c8.4,23.7,31.4,47.8,82.7,65.3c15.1,5.1,45,5.2,46.3,5.2c13,0,21.4-1.3,28.7-4.4
				c8.7-3.7,15.8-8,21.5-12.6c14.5,23,14.9,47.1,1.3,75.1l-1.9,3.8l-1,4.1c-7.7,31.4-23.6,96.7,11.3,141.1
				c19.4,24.7,49.1,37.2,88.5,37.2l0.8,0c52.2-0.2,86.3-15,101.7-43.9c24.4,22.3,37.7,44.2,37.7,62.6c0,55.6-7.4,91.4-24.3,116.1
				c-15.7,23-41.7,40.5-89.8,60.4c-31.6,13.1-75.5,20-126.9,20c-57.2,0-121.1-8.8-179.8-24.9c-61-16.7-113.2-39.8-150.9-66.9
				c-42.7-30.7-74.6-63.2-94.9-96.6c-23.3-38.3-31.1-76.8-23.8-117.8c8.3-47.2,25-82.1,49.7-104.1c-0.2,1.8-0.3,3.6-0.4,5.5
				c-1,25,7.3,73,74.9,113.4c12,7.2,26.7,11,42.4,11c30.1,0,60.1-13.6,80.1-36.4c20.6-23.5,29.5-55.3,25-89.6
				c-6.4-48.9-7-86.7-1.8-112.3C590.3,366.3,591.3,362.5,592.4,359.1 M655.5,276.4c-40.6,0-68.6,22.3-75.8,29.1
				c-26.1,24.8-43.3,66.5-28.2,182.5c7.2,55-33.9,80.9-65.4,80.9c-8.3,0-16-1.8-21.9-5.3c-82.2-49.2-66.8-115.1,4.6-150.2
				c0,0-9.2-1.9-23.6-1.9c-44.6,0-139.2,17.9-165.1,164.6C260.8,685.4,332,770.3,414.9,829.9c86.6,62.3,232,99.3,354.1,99.3
				c54.4,0,104.3-7.4,142.2-23.1C1012.7,864,1050,820,1049.9,692.7c-0.1-85.4-135.5-149.1-135.5-149.1s81.2,89.9-44,90.4
				c-0.2,0-0.4,0-0.6,0c-88.3,0-72.6-80.7-60.9-128.8c54.2-111.8-67.5-171.4-67.6-171.5c0.1,0,37.7,36-6.8,54.7
				c-2.1,0.9-7.1,1.2-13.2,1.2c-12.2,0-28.6-1.4-33.4-3.1c-32.9-11.2-65.4-28.2-58.7-60.5c6.9-32.9,48.6-42.6,58.6-44.9
				C676.4,277.8,665.6,276.4,655.5,276.4L655.5,276.4z M741.4,333.7C741.4,333.7,741.4,333.7,741.4,333.7
				C741.4,333.7,741.4,333.7,741.4,333.7L741.4,333.7z"/>
		</g>
		<g>
			<radialGradient id="SVGID_1_" cx="625.8572" cy="892.3433" r="563.3961" gradientUnits="userSpaceOnUse">
				<stop  offset="0" style="stop-color:#FFD26A"/>
				<stop  offset="0.35" style="stop-color:#E9DD00"/>
				<stop  offset="0.5246" style="stop-color:#E8B50A"/>
				<stop  offset="0.6653" style="stop-color:#E89B11"/>
				<stop  offset="0.75" style="stop-color:#E89213"/>
				<stop  offset="0.998" style="stop-color:#E89213;stop-opacity:0"/>
			</radialGradient>
			<path class="st7" d="M468.9,413.4c0,0-154.4-31.4-188.7,162.8C260.8,685.4,332,770.3,414.9,829.9
				c125.2,90.1,373.3,127.3,496.3,76.2C1012.7,864,1050,820,1049.9,692.7c-0.1-85.4-135.5-149.1-135.5-149.1s81.2,89.9-44,90.4
				c-89,0.4-73.3-80.6-61.5-128.8c54.2-111.8-67.6-171.5-67.6-171.5c0,0,37.7,36-6.8,54.7c-6.2,2.6-39.5,0.6-46.6-1.8
				c-32.9-11.2-65.4-28.2-58.7-60.5c6.9-32.9,48.6-42.6,58.6-44.9c-57.9-16.6-99.2,15.9-108.2,24.5c-26.1,24.8-43.3,66.5-28.2,182.5
				c9.1,69.5-58.9,92.5-87.3,75.5C382.1,514.3,397.5,448.5,468.9,413.4z"/>
		</g>
		<g>
			<path class="st6" d="M1170.2,848.7c0.8,0.8,1.9,0.7,2.9,0.2c5.9-2.8-40.2-46-52.3-52.8c-34.3-19.4-73.4-20.5-111.5-13.9
				c-121.2,21-227.2,84.3-355.1,68.1c-95.9-12.1-160.2-76.4-222.7-144.8c-23.3-25.5-64.7-100.1-104.3-98.4
				c-32.9,1.4-47.6,48.4-57.4,72.9c-42.1,105.3-7.8,167.9,84.1,230.3c101.5,69,214.8,101.6,337.2,91.5
				c125.7-10.3,221.7-54.5,321.3-128.4c30.6-22.6,77.5-61.9,120.2-49.9C1138.7,825.2,1165.1,843.7,1170.2,848.7z"/>
			<radialGradient id="SVGID_2_" cx="681.8864" cy="509.1714" r="500.7277" gradientUnits="userSpaceOnUse">
				<stop  offset="0" style="stop-color:#7C004A;stop-opacity:0"/>
				<stop  offset="0.8625" style="stop-color:#7C004A;stop-opacity:0.8625"/>
				<stop  offset="1" style="stop-color:#7C004A"/>
			</radialGradient>
			<path class="st8" d="M1170.2,848.7c0.8,0.8,1.9,0.7,2.9,0.2c5.9-2.8-40.2-46-52.3-52.8c-34.3-19.4-73.4-20.5-111.5-13.9
				c-121.2,21-227.2,84.3-355.1,68.1c-95.9-12.1-160.2-76.4-222.7-144.8c-23.3-25.5-64.7-100.1-104.3-98.4
				c-32.9,1.4-47.6,48.4-57.4,72.9c-42.1,105.3-7.8,167.9,84.1,230.3c101.5,69,214.8,101.6,337.2,91.5
				c125.7-10.3,221.7-54.5,321.3-128.4c30.6-22.6,77.5-61.9,120.2-49.9C1138.7,825.2,1165.1,843.7,1170.2,848.7z"/>
			<radialGradient id="SVGID_3_" cx="712.1529" cy="749.9121" r="286.6912" gradientUnits="userSpaceOnUse">
				<stop  offset="0" style="stop-color:#F7CF31"/>
				<stop  offset="1" style="stop-color:#F79431;stop-opacity:0.6"/>
			</radialGradient>
			<path class="st9" d="M1091.7,784.1c-26.5-7.4-54.7-6.7-82.4-1.9c-121.2,21-227.2,84.3-355.1,68.1
				c-95.9-12.1-160.2-76.4-222.7-144.8c-22.3-24.4-61-93.5-99-98.2c0.4,13.9,1.7,24.6,3,27.5c17.1,39,46.2,49.9,78.6,90
				c20.5,25.3,62.2,79,116.5,113.4c86.2,54.4,182.1,72.9,277,32.6c93.3-39.6,136.2-65.8,187.1-72.4
				C1037.4,792.8,1066.5,789.6,1091.7,784.1L1091.7,784.1z"/>
			<linearGradient id="SVGID_4_" gradientUnits="userSpaceOnUse" x1="677.5258" y1="1051.6234" x2="704.7207" y2="856.8857">
				<stop  offset="0" style="stop-color:#7C004A"/>
				<stop  offset="1" style="stop-color:#7C004A;stop-opacity:0"/>
			</linearGradient>
			<path class="st10" d="M1114.2,817.2c-39.1-4-80.4,18.7-98.4,30.9C911.7,919,776,938.8,714.1,949.7
				c-139.4,24.6-306.3-85.5-318.5-92.6c-83.3-48.8-114.8-105.2-140.9-125.7C241.5,807,278.1,858.7,354,910.2
				c101.5,69,214.8,101.6,337.2,91.5c125.7-10.3,221.7-54.5,321.3-128.4c30.6-22.6,77.5-61.9,120.2-49.9
				c6.1,1.7,32.5,20.2,37.6,25.2c0.8,0.8,1.9,0.7,2.9,0.2c1-0.5,0.5-2.2-1.3-4.8C1159,831.6,1141,819.9,1114.2,817.2z"/>
			<radialGradient id="SVGID_5_" cx="262.7597" cy="527.7024" r="141.9577" gradientUnits="userSpaceOnUse">
				<stop  offset="0" style="stop-color:#AEEF2E"/>
				<stop  offset="0.3189" style="stop-color:#ABED2D"/>
				<stop  offset="0.5106" style="stop-color:#A3E82B"/>
				<stop  offset="0.6687" style="stop-color:#95DE28"/>
				<stop  offset="0.8085" style="stop-color:#81D123"/>
				<stop  offset="0.9351" style="stop-color:#67C01C"/>
				<stop  offset="1" style="stop-color:#56B518"/>
			</radialGradient>
			<path class="st11" d="M233.9,678.4c-1.3,1.3-3.3,1.7-5.1,1.2c-30.7-9.6-60.1-25.7-80.7-47.4c-20.1-21.3-22.3-59.6-40.6-82.6
				c-1.7-2.1-1.4-5.1,0.5-6.9l16.3-15.5c2.2-2.1,5.7-1.9,7.6,0.5c18.1,23.4,20.7,61.4,40.9,82.8c19.3,20.4,44.2,33,74.9,44.5
				c3.6,1.3,4.5,5.9,1.7,8.6L233.9,678.4z"/>
			<radialGradient id="SVGID_6_" cx="304.4955" cy="760.1541" r="159.8941" gradientUnits="userSpaceOnUse">
				<stop  offset="0" style="stop-color:#56B518"/>
				<stop  offset="0.3189" style="stop-color:#59B719"/>
				<stop  offset="0.5106" style="stop-color:#61BC1B"/>
				<stop  offset="0.6687" style="stop-color:#6FC61E"/>
				<stop  offset="0.8085" style="stop-color:#83D323"/>
				<stop  offset="0.9351" style="stop-color:#9DE42A"/>
				<stop  offset="1" style="stop-color:#AEEF2E"/>
			</radialGradient>
			<path class="st12" d="M390.1,743.5c-21.5-13.4-82.3-50.3-88-78.3c-3.3-16,10.2-44.2,23.6-51.3c18.2-9.6,46.4-0.1,66.3-3.7
				c-28.6-9.4-54-39-85.6-37.5c-45,2.1-78.5,58.4-90.9,95.8c-11.4,34.3-17.1,83.8-4.8,119.1c12.9,37,51.8,55.7,69.5,89.6
				c-5.2-47.4-38.8-84.5-4.3-130.3C299,716.2,357.8,736.8,390.1,743.5z"/>
		</g>
	</g>
	<path class="st13" d="M362.1,640c5.5,0,59.2,55.6,50.9,59c-6.9,2.8-25-22.1-30.9-30.1C372.2,655.7,355.8,640,362.1,640z"/>
	<path class="st13" d="M425.2,713.6c5.5,0,27.7,20.2,19.4,23.6c-6.9,2.8-6.3,0-12.2-7.9C422.5,715.9,419,713.6,425.2,713.6z"/>
	<path class="st13" d="M1063,784.7c3.3,1.2,41.7,9.5,37.2,6.4c-3.7-2.6-6.6-3.4-17.8-6.4C1072.3,782,1059.3,783.4,1063,784.7z"/>
	<path class="st13" d="M1109,797.6c1.3,1.4,19.2,13.2,18.3,10.1c-0.7-2.5-2-3.5-6.8-7.4C1116.1,796.7,1107.6,796,1109,797.6z"/>
</g>
</svg>
