<?xml version="1.0" encoding="utf-8"?>
<!-- Generator: Adobe Illustrator 22.1.0, SVG Export Plug-In . SVG Version: 6.00 Build 0)  -->
<svg version="1.1" id="Слой_1" xmlns="http://www.w3.org/2000/svg" xmlns:xlink="http://www.w3.org/1999/xlink" x="0px" y="0px"
	 viewBox="0 0 170 72.4" style="enable-background:new 0 0 170 72.4;" xml:space="preserve">
<style type="text/css">
	.st0{fill:#fff;}
	.st1{fill:none;stroke:#fff;stroke-width:5;stroke-linecap:round;stroke-linejoin:round;stroke-miterlimit:10;}
</style>
<title>sssss</title>
<g>
	<path class="st0" d="M51,23.1c12.2,0,22.2,9.9,22.2,22.2S63.3,67.4,51,67.4s-22.2-9.9-22.2-22.2S38.8,23.1,51,23.1 M51,18.1
		c-15,0-27.2,12.2-27.2,27.2S36,72.4,51,72.4s27.2-12.2,27.2-27.2S66,18.1,51,18.1L51,18.1z"/>
</g>
<title>sssss</title>
<g>
	<path class="st0" d="M119,23.1c12.2,0,22.2,9.9,22.2,22.2s-9.9,22.2-22.2,22.2s-22.2-9.9-22.2-22.2S106.7,23.1,119,23.1 M119,18.1
		c-15,0-27.2,12.2-27.2,27.2S104,72.4,119,72.4c15,0,27.2-12.2,27.2-27.2S134,18.1,119,18.1L119,18.1z"/>
</g>
<g>
	<path class="st1" d="M78.2,45.3c0-3.7,3.1-5.8,6.8-5.9c3.8-0.1,6.8,2.1,6.8,5.9"/>
</g>
<path class="st1" d="M23.9,45.3C39.7,16.9,50.7,3.6,56.8,5.6c1.6,0.5,2.8,2,3.7,4.5"/>
<path class="st1" d="M146.1,45.3c-15.8-28.4-26.8-41.6-32.9-39.7c-1.6,0.5-2.8,2-3.7,4.5"/>
</svg>
