<?xml version="1.0" encoding="utf-8"?>
<!-- Generator: Adobe Illustrator 22.1.0, SVG Export Plug-In . SVG Version: 6.00 Build 0)  -->
<svg version="1.1" xmlns="http://www.w3.org/2000/svg" xmlns:xlink="http://www.w3.org/1999/xlink" x="0px" y="0px"
	 viewBox="0 0 1280 1280" style="enable-background:new 0 0 1280 1280;" xml:space="preserve">
<style type="text/css">
	.st0{fill:url(#SVGID_1_);}
	.st1{fill:url(#SVGID_2_);}
	.st2{fill:#D8501A;}
	.st3{fill:url(#SVGID_3_);}
	.st4{fill:url(#SVGID_4_);}
	.st5{fill:url(#SVGID_5_);}
	.st6{fill:url(#SVGID_6_);}
	.st7{fill:url(#SVGID_7_);}
	.st8{fill:url(#SVGID_8_);}
	.st9{fill:url(#SVGID_9_);}
	.st10{fill:url(#SVGID_10_);}
	.st11{fill:url(#SVGID_11_);}
	.st12{fill:url(#SVGID_12_);}
	.st13{opacity:0.1;}
	.st14{fill:none;}
	.st15{fill:url(#SVGID_13_);}
	.st16{fill:url(#SVGID_14_);}
	.st17{fill:url(#SVGID_15_);}
	.st18{fill:url(#SVGID_16_);}
	.st19{fill:url(#SVGID_17_);}
	.st20{fill:url(#SVGID_18_);}
	.st21{fill:url(#SVGID_19_);}
	.st22{fill:url(#SVGID_20_);}
	.st23{fill:url(#SVGID_21_);}
	.st24{fill:url(#SVGID_22_);}
	.st25{fill:url(#SVGID_23_);}
	.st26{fill:url(#SVGID_24_);}
	.st27{fill:url(#SVGID_25_);}
	.st28{fill:url(#SVGID_26_);}
	.st29{opacity:0.1;fill:url(#SVGID_27_);}
	.st30{opacity:0.75;}
	.st31{fill:#FFFFFF;}
	.st32{fill:#D80000;}
	.st33{opacity:0.33;fill:url(#SVGID_28_);}
	.st34{opacity:0.25;fill:url(#SVGID_29_);}
	.st35{fill:url(#SVGID_30_);}
	.st36{fill:url(#SVGID_31_);}
</style>
<g id="Слой_2">
	<g>
		<g>
			<radialGradient id="SVGID_1_" cx="691.699" cy="281.1677" r="242.034" gradientUnits="userSpaceOnUse">
				<stop  offset="0" style="stop-color:#D8501A"/>
				<stop  offset="0.4828" style="stop-color:#D9521B"/>
				<stop  offset="0.7218" style="stop-color:#DD5A20"/>
				<stop  offset="0.9065" style="stop-color:#E36728"/>
				<stop  offset="1" style="stop-color:#E8712E"/>
			</radialGradient>
			<path class="st0" d="M803.5,363.8c0,0-41.3-80.7,10.3-163.5c26.7-42.9,54.2-94.9,50.9-118.1c-5.4-37.8-40.1-45.5-66-23.2
				c-20.4,17.5-4.8,42-12.9,118.4c-9.5,89-79.6,169.7-79.6,169.7L803.5,363.8z"/>
			<radialGradient id="SVGID_2_" cx="1072.6957" cy="576.2938" r="200.8301" gradientUnits="userSpaceOnUse">
				<stop  offset="0" style="stop-color:#D8501A"/>
				<stop  offset="0.4828" style="stop-color:#D9521B"/>
				<stop  offset="0.7218" style="stop-color:#DD5A20"/>
				<stop  offset="0.9065" style="stop-color:#E36728"/>
				<stop  offset="1" style="stop-color:#E8712E"/>
			</radialGradient>
			<path class="st1" d="M974.8,464.4c0,0,85.1,1.6,137.7-42c27.2-22.6,61-48.3,78.3-54.4c28.3-10,39-0.5,26.6,15.4
				c-9.7,12.5-29.9,14.8-84.2,41.4c-63.3,31.1-117.4,104.2-117.4,104.2L974.8,464.4z"/>
			<path class="st2" d="M604.4,964.8c0,0,9.6,14.5,0.1,105.9c-4.9,47.3-21.8,125.3-8.3,141.6c21.9,26.5,48.4,30,61.9-1
				c10.6-24.3,9.5-28.9-19.1-70.1c-45.8-66.1,25.2-163.2,25.2-163.2L604.4,964.8z"/>
			<path class="st2" d="M363.4,813.9c0,0-69,60.6-143.5,82.1c-38.6,11.1-84.4,26.2-101.9,37.9c-28.6,19.1-28,33.8-5.6,31.9
				c17.6-1.5,33.8-17.8,95-50.3c71.4-37.9,196.1-43.9,196.1-43.9L363.4,813.9z"/>
			<radialGradient id="SVGID_3_" cx="947.1237" cy="911.7259" r="180.4412" gradientUnits="userSpaceOnUse">
				<stop  offset="0" style="stop-color:#D8501A"/>
				<stop  offset="0.4828" style="stop-color:#D9521B"/>
				<stop  offset="0.7218" style="stop-color:#DD5A20"/>
				<stop  offset="0.9065" style="stop-color:#E36728"/>
				<stop  offset="1" style="stop-color:#E8712E"/>
			</radialGradient>
			<path class="st3" d="M1016.8,748.3c0,0-21.1,83.7,66.1,131c31.1,16.8,66.9,39.7,78.8,53.7c19.4,22.9-4.9,38.9-24.2,33
				c-15.1-4.6-36.6-22.7-73.9-70.3c-64-81.7-96.5-46.8-96.5-46.8c-16.4-20.7-18.5-49.1-5.4-70.9C973,759.1,994.2,747.8,1016.8,748.3
				z"/>
			<radialGradient id="SVGID_4_" cx="156.5573" cy="592.3799" r="242.0977" gradientUnits="userSpaceOnUse">
				<stop  offset="0" style="stop-color:#D8501A"/>
				<stop  offset="0.4828" style="stop-color:#D9521B"/>
				<stop  offset="0.7218" style="stop-color:#DD5A20"/>
				<stop  offset="0.9065" style="stop-color:#E36728"/>
				<stop  offset="1" style="stop-color:#E8712E"/>
			</radialGradient>
			<path class="st4" d="M308.9,558.6c0,0-4.4-127.9-123.8-172.6C142.6,370.1,92.2,348,73,333.6c-31.4-23.5-9.5-43.3,15.1-38.4
				c19.3,3.8,51.2,21.9,113,71.2C307,451,424.8,456.9,424.8,456.9c27,21.4-35.4,34.7-42,59.8C377.1,538.5,335.3,557.3,308.9,558.6z"
				/>
			<radialGradient id="SVGID_5_" cx="386.1927" cy="394.666" r="104.177" gradientUnits="userSpaceOnUse">
				<stop  offset="0" style="stop-color:#D8501A"/>
				<stop  offset="0.4828" style="stop-color:#D9521B"/>
				<stop  offset="0.7218" style="stop-color:#DD5A20"/>
				<stop  offset="0.9065" style="stop-color:#E36728"/>
				<stop  offset="1" style="stop-color:#E8712E"/>
			</radialGradient>
			<path class="st5" d="M511.3,363.8c0,0-35.9,33-86.7-45.8c-18.1-28.1-29.3-79.7-42.4-91.6c-21.5-19.4-61.4,21.2-54,38
				c5.9,13.1,30.8,30.9,75.3,68.6c76.2,64.7,53.6,85.1,53.6,85.1c19.3,16.5,51.3,22.2,67.6,14.7
				C538.8,426.3,514.7,382.5,511.3,363.8z"/>
			<radialGradient id="SVGID_6_" cx="489.7719" cy="300.1025" r="54.2518" gradientUnits="userSpaceOnUse">
				<stop  offset="0" style="stop-color:#D8501A"/>
				<stop  offset="0.4828" style="stop-color:#D9521B"/>
				<stop  offset="0.7218" style="stop-color:#DD5A20"/>
				<stop  offset="0.9065" style="stop-color:#E36728"/>
				<stop  offset="1" style="stop-color:#E8712E"/>
			</radialGradient>
			<path class="st6" d="M544.1,261.2c6.7,11.5,0.5,46.7-2.9,57.4c-3.1,9.7-11.4,15.5-17,11.9c-4.9-3.2-19.1-19.9-24.3-42.5
				c-8.9-38.9,2.1-48.5,7.9-53C512.7,231,525.2,228.8,544.1,261.2z"/>
			<radialGradient id="SVGID_7_" cx="933.108" cy="968.8663" r="80.6929" gradientUnits="userSpaceOnUse">
				<stop  offset="0" style="stop-color:#D8501A"/>
				<stop  offset="0.4828" style="stop-color:#D9521B"/>
				<stop  offset="0.7218" style="stop-color:#DD5A20"/>
				<stop  offset="0.9065" style="stop-color:#E36728"/>
				<stop  offset="1" style="stop-color:#E8712E"/>
			</radialGradient>
			<path class="st7" d="M967.1,848.9c0,0-36.8,63.4,13.8,85c18,7.7,38.3,23.3,44.7,30.9c10.5,12.3-12,34-23.5,32
				c-9-1.6-17.5-17-37.5-43c-34.2-44.6-85.4-39.8-85.4-39.8c-8.8-11.3,24.1-17.4,33.5-31.8C920.8,869.6,953.3,850.5,967.1,848.9z"/>
			<radialGradient id="SVGID_8_" cx="1044.6986" cy="686.6022" r="152.8673" gradientUnits="userSpaceOnUse">
				<stop  offset="0" style="stop-color:#D8501A"/>
				<stop  offset="0.4828" style="stop-color:#D9521B"/>
				<stop  offset="0.7218" style="stop-color:#DD5A20"/>
				<stop  offset="0.9065" style="stop-color:#E36728"/>
				<stop  offset="1" style="stop-color:#E8712E"/>
			</radialGradient>
			<path class="st8" d="M1010.4,652.8c0,0-2.9-54.2,67.2-62.1c25-2.8,42.2,7.9,53.9,2c19.1-9.6,20.9-58.9,6.6-60
				c-11.1-0.9-29.7,12.4-67.5,33.3c-64.8,35.9-76.1-16.8-76.1-16.8c-16.5,9-26.7,57.9-24.4,75.2
				C972.1,639.3,995.6,647.3,1010.4,652.8z"/>
			<path class="st2" d="M378.3,873.6c0,0,47.6-0.2-14.8,69.8c-22.2,24.9-50.7,37.7-58.6,53.6c-12.9,25.9,17.1,42.6,31.3,30.9
				c11.1-9.1,22.9-15.2,47.4-68.1c42.1-90.7,85.7-79.9,85.7-79.9c10.8-23-10.2-49.7-21.8-63.4C437.5,804.5,395.5,865.3,378.3,873.6z
				"/>
			<radialGradient id="SVGID_9_" cx="272.4215" cy="638.8975" r="61.7817" gradientUnits="userSpaceOnUse">
				<stop  offset="0" style="stop-color:#D8501A"/>
				<stop  offset="0.4828" style="stop-color:#D9521B"/>
				<stop  offset="0.7218" style="stop-color:#DD5A20"/>
				<stop  offset="0.9065" style="stop-color:#E36728"/>
				<stop  offset="1" style="stop-color:#E8712E"/>
			</radialGradient>
			<path class="st9" d="M278.2,634.2c-28.5-12-33.7,6-46-29.6c-8.5-24.9,10.9-36.7,17.5-38c5.7-1.2,35.3,11.7,59.2,2.1
				c37-14.8,31.8,75.2,24.7,86.8C333.6,655.4,297.3,642.2,278.2,634.2z"/>
			<radialGradient id="SVGID_10_" cx="999.0799" cy="482.004" r="70.5229" gradientUnits="userSpaceOnUse">
				<stop  offset="0" style="stop-color:#D8501A"/>
				<stop  offset="0.4828" style="stop-color:#D9521B"/>
				<stop  offset="0.7218" style="stop-color:#DD5A20"/>
				<stop  offset="0.9065" style="stop-color:#E36728"/>
				<stop  offset="1" style="stop-color:#E8712E"/>
			</radialGradient>
			<path class="st10" d="M1038.9,456.5c6.1,11.9-54.9,24.7-65.4,28.6c-9.5,3.5-57.8-38.7-32-33.4c5.7,1.2,15.9,0.1,30.6-18
				c25.1-31.1,39.2-27,46.5-26.5C1058.7,409.6,1028.4,436.1,1038.9,456.5z"/>
			<radialGradient id="SVGID_11_" cx="120.7752" cy="598.0317" r="47.5483" gradientUnits="userSpaceOnUse">
				<stop  offset="0" style="stop-color:#D8501A"/>
				<stop  offset="0.4828" style="stop-color:#D9521B"/>
				<stop  offset="0.7218" style="stop-color:#DD5A20"/>
				<stop  offset="0.9065" style="stop-color:#E36728"/>
				<stop  offset="1" style="stop-color:#E8712E"/>
			</radialGradient>
			<path class="st11" d="M139.2,543c12.4,0.7,28.8,17.5,34.6,26.9c5.3,8.5-9.1,20.9-9.1,20.9s-12.1,16.6-31.9,8.1
				c-33.8-14.6-34.4-30.3-34.3-38.2C98.7,553.8,104.4,541.2,139.2,543z"/>
			<path class="st2" d="M838.4,919.3c-14.8,22.6-14.8,22.6-22.6,47.9c-5.5,17.5-14,52.6-14,52.6s-18-20.6-19.4-22.8
				c-5.9-9.3-14.4-19.9-20.4-31.7c-3.8-7.3-6.1-23.5-27.7-16.4c-8.7,2.8-0.3-21.5,0-26.6c1-13.7,19.3-27.6,37.3-30.3
				C793.8,888.7,850.4,901,838.4,919.3z"/>
			
				<radialGradient id="SVGID_12_" cx="812.5447" cy="1146.8733" r="35.3807" fx="846.7432" fy="1137.8036" gradientUnits="userSpaceOnUse">
				<stop  offset="0" style="stop-color:#D8501A"/>
				<stop  offset="0.4828" style="stop-color:#D9521B"/>
				<stop  offset="0.7218" style="stop-color:#DD5A20"/>
				<stop  offset="0.9065" style="stop-color:#E36728"/>
				<stop  offset="1" style="stop-color:#E8712E"/>
			</radialGradient>
			<path class="st12" d="M847.3,1145.2c2.9-10.9-9.8-38.1-15-46.1c-4.6-7.2-18.4-28.7-18.4-28.7s-9.2,43.1-8.5,62.8
				c1.3,33.6,12.3,39.1,18,41.4C828.4,1176.7,839,1175.7,847.3,1145.2z"/>
		</g>
		<g class="st13">
			<path class="st14" d="M803.5,363.8c0,0-41.3-80.7,10.3-163.5c26.7-42.9,54.2-94.9,50.9-118.1c-5.4-37.8-40.1-45.5-66-23.2
				c-20.4,17.5-4.8,42-12.9,118.4c-9.5,89-79.6,169.7-79.6,169.7L803.5,363.8z"/>
			<path class="st14" d="M974.8,464.4c0,0,85.1,1.6,137.7-42c27.2-22.6,61-48.3,78.3-54.4c28.3-10,39-0.5,26.6,15.4
				c-9.7,12.5-29.9,14.8-84.2,41.4c-63.3,31.1-117.4,104.2-117.4,104.2L974.8,464.4z"/>
			<radialGradient id="SVGID_13_" cx="719.5578" cy="1025.1342" r="200.7357" gradientUnits="userSpaceOnUse">
				<stop  offset="0" style="stop-color:#AA3415;stop-opacity:0"/>
				<stop  offset="0.8625" style="stop-color:#AA3415;stop-opacity:0.8625"/>
				<stop  offset="1" style="stop-color:#AA3415"/>
			</radialGradient>
			<path class="st15" d="M604.4,964.8c0,0,9.6,14.5,0.1,105.9c-4.9,47.3-21.8,125.3-8.3,141.6c21.9,26.5,48.4,30,61.9-1
				c10.6-24.3,9.5-28.9-19.1-70.1c-45.8-66.1,25.2-163.2,25.2-163.2L604.4,964.8z"/>
			<radialGradient id="SVGID_14_" cx="257.7342" cy="788.0506" r="206.3424" gradientUnits="userSpaceOnUse">
				<stop  offset="0" style="stop-color:#AA3415;stop-opacity:0"/>
				<stop  offset="0.8625" style="stop-color:#AA3415;stop-opacity:0.8625"/>
				<stop  offset="1" style="stop-color:#AA3415"/>
			</radialGradient>
			<path class="st16" d="M363.4,813.9c0,0-69,60.6-143.5,82.1c-38.6,11.1-84.4,26.2-101.9,37.9c-28.6,19.1-28,33.8-5.6,31.9
				c17.6-1.5,33.8-17.8,95-50.3c71.4-37.9,196.1-43.9,196.1-43.9L363.4,813.9z"/>
			<radialGradient id="SVGID_15_" cx="1101.0006" cy="765.8426" r="224.2498" gradientUnits="userSpaceOnUse">
				<stop  offset="0" style="stop-color:#AA3415;stop-opacity:0"/>
				<stop  offset="0.8625" style="stop-color:#AA3415;stop-opacity:0.8625"/>
				<stop  offset="1" style="stop-color:#AA3415"/>
			</radialGradient>
			<path class="st17" d="M1016.8,748.3c0,0-21.1,83.7,66.1,131c31.1,16.8,66.9,39.7,78.8,53.7c19.4,22.9-4.9,38.9-24.2,33
				c-15.1-4.6-36.6-22.7-73.9-70.3c-64-81.7-96.5-46.8-96.5-46.8c-16.4-20.7-18.5-49.1-5.4-70.9C973,759.1,994.2,747.8,1016.8,748.3
				z"/>
			<radialGradient id="SVGID_16_" cx="370.3863" cy="264.6421" r="305.454" gradientUnits="userSpaceOnUse">
				<stop  offset="0" style="stop-color:#AA3415;stop-opacity:0"/>
				<stop  offset="0.8625" style="stop-color:#AA3415;stop-opacity:0.8625"/>
				<stop  offset="1" style="stop-color:#AA3415"/>
			</radialGradient>
			<path class="st18" d="M308.9,558.6c0,0-4.4-127.9-123.8-172.6C142.6,370.1,92.2,348,73,333.6c-31.4-23.5-9.5-43.3,15.1-38.4
				c19.3,3.8,51.2,21.9,113,71.2C307,451,424.8,456.9,424.8,456.9c27,21.4-35.4,34.7-42,59.8C377.1,538.5,335.3,557.3,308.9,558.6z"
				/>
			<radialGradient id="SVGID_17_" cx="576.0408" cy="224.8019" r="261.1136" gradientUnits="userSpaceOnUse">
				<stop  offset="0" style="stop-color:#AA3415;stop-opacity:0"/>
				<stop  offset="0.8625" style="stop-color:#AA3415;stop-opacity:0.8625"/>
				<stop  offset="1" style="stop-color:#AA3415"/>
			</radialGradient>
			<path class="st19" d="M511.3,363.8c0,0-35.9,33-86.7-45.8c-18.1-28.1-29.3-79.7-42.4-91.6c-21.5-19.4-61.4,21.2-54,38
				c5.9,13.1,30.8,30.9,75.3,68.6c76.2,64.7,53.6,85.1,53.6,85.1c19.3,16.5,51.3,22.2,67.6,14.7
				C538.8,426.3,514.7,382.5,511.3,363.8z"/>
			<radialGradient id="SVGID_18_" cx="543.7288" cy="258.1361" r="68.0434" gradientUnits="userSpaceOnUse">
				<stop  offset="0" style="stop-color:#AA3415;stop-opacity:0"/>
				<stop  offset="0.8625" style="stop-color:#AA3415;stop-opacity:0.8625"/>
				<stop  offset="1" style="stop-color:#AA3415"/>
			</radialGradient>
			<path class="st20" d="M544.1,261.2c6.7,11.5,0.5,46.7-2.9,57.4c-3.1,9.7-11.4,15.5-17,11.9c-4.9-3.2-19.1-19.9-24.3-42.5
				c-8.9-38.9,2.1-48.5,7.9-53C512.7,231,525.2,228.8,544.1,261.2z"/>
			<radialGradient id="SVGID_19_" cx="985.0663" cy="866.9479" r="128.3143" gradientUnits="userSpaceOnUse">
				<stop  offset="0" style="stop-color:#AA3415;stop-opacity:0"/>
				<stop  offset="0.8625" style="stop-color:#AA3415;stop-opacity:0.8625"/>
				<stop  offset="1" style="stop-color:#AA3415"/>
			</radialGradient>
			<path class="st21" d="M967.1,848.9c0,0-36.8,63.4,13.8,85c18,7.7,38.3,23.3,44.7,30.9c10.5,12.3-12,34-23.5,32
				c-9-1.6-17.5-17-37.5-43c-34.2-44.6-85.4-39.8-85.4-39.8c-8.8-11.3,24.1-17.4,33.5-31.8C920.8,869.6,953.3,850.5,967.1,848.9z"/>
			<radialGradient id="SVGID_20_" cx="1042.7002" cy="478.7685" r="176.5819" gradientUnits="userSpaceOnUse">
				<stop  offset="0" style="stop-color:#AA3415;stop-opacity:0"/>
				<stop  offset="0.8625" style="stop-color:#AA3415;stop-opacity:0.8625"/>
				<stop  offset="1" style="stop-color:#AA3415"/>
			</radialGradient>
			<path class="st22" d="M1010.4,652.8c0,0-2.9-54.2,67.2-62.1c25-2.8,42.2,7.9,53.9,2c19.1-9.6,20.9-58.9,6.6-60
				c-11.1-0.9-29.7,12.4-67.5,33.3c-64.8,35.9-76.1-16.8-76.1-16.8c-16.5,9-26.7,57.9-24.4,75.2
				C972.1,639.3,995.6,647.3,1010.4,652.8z"/>
			<radialGradient id="SVGID_21_" cx="402.9912" cy="833.301" r="222.7656" gradientUnits="userSpaceOnUse">
				<stop  offset="0" style="stop-color:#AA3415;stop-opacity:0"/>
				<stop  offset="0.8625" style="stop-color:#AA3415;stop-opacity:0.8625"/>
				<stop  offset="1" style="stop-color:#AA3415"/>
			</radialGradient>
			<path class="st23" d="M378.3,873.6c0,0,47.6-0.2-14.8,69.8c-22.2,24.9-50.7,37.7-58.6,53.6c-12.9,25.9,17.1,42.6,31.3,30.9
				c11.1-9.1,22.9-15.2,47.4-68.1c42.1-90.7,85.7-79.9,85.7-79.9c10.8-23-10.2-49.7-21.8-63.4C437.5,804.5,395.5,865.3,378.3,873.6z
				"/>
			<radialGradient id="SVGID_22_" cx="314.3879" cy="572.9503" r="97.5397" gradientUnits="userSpaceOnUse">
				<stop  offset="0" style="stop-color:#AA3415;stop-opacity:0"/>
				<stop  offset="0.8625" style="stop-color:#AA3415;stop-opacity:0.8625"/>
				<stop  offset="1" style="stop-color:#AA3415"/>
			</radialGradient>
			<path class="st24" d="M278.2,634.2c-28.5-12-33.7,6-46-29.6c-8.5-24.9,10.9-36.7,17.5-38c5.7-1.2,35.3,11.7,59.2,2.1
				c37-14.8,31.8,75.2,24.7,86.8C333.6,655.4,297.3,642.2,278.2,634.2z"/>
			<path class="st14" d="M1038.9,456.5c6.1,11.9-54.9,24.7-65.4,28.6c-9.5,3.5-57.8-38.7-32-33.4c5.7,1.2,15.9,0.1,30.6-18
				c25.1-31.1,39.2-27,46.5-26.5C1058.7,409.6,1028.4,436.1,1038.9,456.5z"/>
			<radialGradient id="SVGID_23_" cx="142.7577" cy="560.0621" r="47.5483" gradientUnits="userSpaceOnUse">
				<stop  offset="0" style="stop-color:#AA3415;stop-opacity:0"/>
				<stop  offset="0.8625" style="stop-color:#AA3415;stop-opacity:0.8625"/>
				<stop  offset="1" style="stop-color:#AA3415"/>
			</radialGradient>
			<path class="st25" d="M139.2,543c12.4,0.7,28.8,17.5,34.6,26.9c5.3,8.5-9.1,20.9-9.1,20.9s-12.1,16.6-31.9,8.1
				c-33.8-14.6-34.4-30.3-34.3-38.2C98.7,553.8,104.4,541.2,139.2,543z"/>
			<radialGradient id="SVGID_24_" cx="777.2084" cy="901.7463" r="96.3559" gradientUnits="userSpaceOnUse">
				<stop  offset="0" style="stop-color:#AA3415;stop-opacity:0"/>
				<stop  offset="0.8625" style="stop-color:#AA3415;stop-opacity:0.8625"/>
				<stop  offset="1" style="stop-color:#AA3415"/>
			</radialGradient>
			<path class="st26" d="M838.4,919.3c-14.8,22.6-14.8,22.6-22.6,47.9c-5.5,17.5-14,52.6-14,52.6s-18-20.6-19.4-22.8
				c-5.9-9.3-14.4-19.9-20.4-31.7c-3.8-7.3-6.1-23.5-27.7-16.4c-8.7,2.8-0.3-21.5,0-26.6c1-13.7,19.3-27.6,37.3-30.3
				C793.8,888.7,850.4,901,838.4,919.3z"/>
			<radialGradient id="SVGID_25_" cx="838.524" cy="1102.9086" r="69.442" gradientUnits="userSpaceOnUse">
				<stop  offset="0" style="stop-color:#AA3415;stop-opacity:0"/>
				<stop  offset="0.8625" style="stop-color:#AA3415;stop-opacity:0.8625"/>
				<stop  offset="1" style="stop-color:#AA3415"/>
			</radialGradient>
			<path class="st27" d="M847.3,1145.2c2.9-10.9-9.8-38.1-15-46.1c-4.6-7.2-18.4-28.7-18.4-28.7s-9.2,43.1-8.5,62.8
				c1.3,33.6,12.3,39.1,18,41.4C828.4,1176.7,839,1175.7,847.3,1145.2z"/>
		</g>
	</g>
	<g>
		<radialGradient id="SVGID_26_" cx="585.9827" cy="827.9206" r="455.7108" gradientUnits="userSpaceOnUse">
			<stop  offset="0" style="stop-color:#D8501A"/>
			<stop  offset="0.4828" style="stop-color:#D9521B"/>
			<stop  offset="0.7218" style="stop-color:#DD5A20"/>
			<stop  offset="0.9065" style="stop-color:#E36728"/>
			<stop  offset="1" style="stop-color:#E8712E"/>
		</radialGradient>
		<path class="st28" d="M488.3,379.4c10.7-13.4,28-20.1,45.3-17.5c23.4,3.6,59.3,25.7,86.9,22.4c69.2-8.2,85-55.2,135.1-51
			c36.6,3.1,34.3,33.6,120.1,85c92.8,55.6,128.9,42.7,140.8,78.2c10.3,30.8-11.9,36.2-11.3,94.3c0.8,66.1,43,81.3,31.9,127.3
			c-8.5,35.3-39.9,30.3-54.4,75.7c-14.7,46.1-18.5,75.8-31.9,101.9c-14.2,27.7-56.4,7-140.8,30.2c-169.7,46.8-147.7,66.2-180.2,60
			c-37.7-7.1-8.8-45.8-110.7-90.3c-79.5-34.7-124.1-8.8-144.5-42.1c-14.4-23.5-11.9-66.6-18.6-120c-13.7-108.3-65.8-107.4-47-175
			c9-32.5,33-6.9,105.1-89.3C440.1,439.5,469.8,402.6,488.3,379.4z"/>
		<radialGradient id="SVGID_27_" cx="793.8164" cy="448.2244" r="573.3893" gradientUnits="userSpaceOnUse">
			<stop  offset="0" style="stop-color:#AA3415;stop-opacity:0"/>
			<stop  offset="0.8625" style="stop-color:#AA3415;stop-opacity:0.8625"/>
			<stop  offset="1" style="stop-color:#AA3415"/>
		</radialGradient>
		<path class="st29" d="M488.3,379.4c10.7-13.4,28-20.1,45.3-17.5c23.4,3.6,59.3,25.7,86.9,22.4c69.2-8.2,85-55.2,135.1-51
			c36.6,3.1,34.3,33.6,120.1,85c92.8,55.6,128.9,42.7,140.8,78.2c10.3,30.8-11.9,36.2-11.3,94.3c0.8,66.1,43,81.3,31.9,127.3
			c-8.5,35.3-39.9,30.3-54.4,75.7c-14.7,46.1-18.5,75.8-31.9,101.9c-14.2,27.7-56.4,7-140.8,30.2c-169.7,46.8-147.7,66.2-180.2,60
			c-37.7-7.1-8.8-45.8-110.7-90.3c-79.5-34.7-124.1-8.8-144.5-42.1c-14.4-23.5-11.9-66.6-18.6-120c-13.7-108.3-65.8-107.4-47-175
			c9-32.5,33-6.9,105.1-89.3C440.1,439.5,469.8,402.6,488.3,379.4z"/>
	</g>
	<g class="st30">
		<path class="st31" d="M824,56.8c-4.4,4.7-1.1,22.5,12,26c10.8,2.8,18.8-6.5,18.7-12.7C854.6,60.4,830.1,50.3,824,56.8z"/>
		<path class="st31" d="M1021.1,413.3c-2.2,2.4-0.6,11.3,6,13c5.4,1.4,9.4-3.2,9.4-6.4C1036.4,415.1,1024.2,410,1021.1,413.3z"/>
		<path class="st31" d="M1217,370.9c4.1-2.5-0.5-6-14.3-2.7c-11.3,2.7-18.8,7.5-18.3,9C1185.3,379.6,1211.3,374.5,1217,370.9z"/>
		<path class="st31" d="M1137.7,540.4c2.3,5.2,3.6,25.6-0.7,30.1c-3.5,3.7-7.8-6.5-8.6-13.6C1127,545.9,1134.5,533.3,1137.7,540.4z"
			/>
		<path class="st31" d="M509.9,242.6c-6.1,5.4-4.4,7.7,11.8,13.7c13.4,4.9,16.8,18.5,17.5,10.6C540.3,254.6,518.4,235.1,509.9,242.6
			z"/>
		<path class="st31" d="M90.1,301.8c-9-1-6.2,9.7,17.5,20.7c19.6,9.1,36,10.5,37,7.6C146.1,325.5,102.5,303.1,90.1,301.8z"/>
		<path class="st31" d="M384,246.6c2.9-4.7-2.8-19.3-14.5-20.1c-9.7-0.6-14.9,8.6-13.8,13.9C357.4,248.6,380,253.2,384,246.6z"/>
		<path class="st31" d="M912,445.8c17.1,3-2.9-1.8-46.7-26.8c-36.1-20.6-51-42.1-53.4-36.3C808.2,391.6,888.3,441.6,912,445.8z"/>
		<path class="st31" d="M524.7,369.3c-3.7,4,15.4,7.9,26.5,10.8c9.1,2.4,28.1,11.2,28.1,6C579.2,378,529.9,363.8,524.7,369.3z"/>
		<path class="st31" d="M1033.4,703.5c2.1-5.9-5.7-42.3-17.5-42.5c-9.8-0.1,5.1,20.8,7.1,27C1026,697.8,1030.4,711.6,1033.4,703.5z"
			/>
		<path class="st31" d="M1138.2,922.9c-5.7,2.9-2.5,7.6,8.7,15.3c9.2,6.4,15.7,19.5,17.7,13.7
			C1167.7,942.7,1146.1,918.8,1138.2,922.9z"/>
		<path class="st31" d="M1009.9,965.8c-2.2,2.4-0.6,11.3,6,13c5.4,1.4,9.4-3.2,9.4-6.4C1025.2,967.6,1012.9,962.5,1009.9,965.8z"/>
		<path class="st31" d="M815.2,1086.7c-4.4,4.7,1,8.7,6.7,19.2c5.3,9.9,10,13.6,9.9,7.4C831.6,1103.5,821.2,1080.1,815.2,1086.7z"/>
		<path class="st31" d="M133.9,549.6c-3.2,3.5-0.8,16.7,8.9,19.2c8,2.1,13.9-4.8,13.8-9.4C156.5,552.2,138.4,544.8,133.9,549.6z"/>
		<path class="st31" d="M246.4,572.1c-2.2,2.4-0.6,11.3,6,13c5.4,1.4,9.4-3.2,9.4-6.4C261.7,573.9,249.4,568.8,246.4,572.1z"/>
		<path class="st31" d="M636.1,1158.7c1,3.3,17.1,39.2,17,33.7c-0.1-4.5,5-10.1,0.8-20.9C650,1161.8,635,1154.9,636.1,1158.7z"/>
	</g>
</g>
<g id="Слой_1">
	<g>
		<g>
			<path class="st32" d="M970.3,743.2c-38.5,148.4-246.5,182.8-374.5,160.1c-172-30.5-277.4-167.9-218.5-345.3
				c38.4-115.6,214.8-144.3,321.9-142.2C899.5,419.8,1024.7,533.5,970.3,743.2z"/>
			<radialGradient id="SVGID_28_" cx="713.9467" cy="484.6469" r="401.8581" gradientUnits="userSpaceOnUse">
				<stop  offset="0" style="stop-color:#7C004A;stop-opacity:0"/>
				<stop  offset="0.8625" style="stop-color:#7C004A;stop-opacity:0.8625"/>
				<stop  offset="1" style="stop-color:#7C004A"/>
			</radialGradient>
			<path class="st33" d="M970.3,743.2c-38.5,148.4-246.5,182.8-374.5,160.1c-172-30.5-277.4-167.9-218.5-345.3
				c38.4-115.6,214.8-144.3,321.9-142.2C899.5,419.8,1024.7,533.5,970.3,743.2z"/>
			<radialGradient id="SVGID_29_" cx="713.9467" cy="484.6469" r="469.9489" gradientUnits="userSpaceOnUse">
				<stop  offset="0" style="stop-color:#E83518"/>
				<stop  offset="0.1375" style="stop-color:#E83518;stop-opacity:0.8625"/>
				<stop  offset="1" style="stop-color:#E83518;stop-opacity:0"/>
			</radialGradient>
			<path class="st34" d="M970.3,743.2c-38.5,148.4-246.5,182.8-374.5,160.1c-172-30.5-277.4-167.9-218.5-345.3
				c38.4-115.6,214.8-144.3,321.9-142.2C899.5,419.8,1024.7,533.5,970.3,743.2z"/>
			<g class="st30">
				<path class="st31" d="M900.1,483.3c5.5,0,45.7,40.2,37.4,43.6c-6.9,2.8-11.4-6.6-17.4-14.6C910.3,499,893.9,483.3,900.1,483.3z"
					/>
				<path class="st31" d="M947.9,539.6c5.5,0.5,31.2,84.4,22.2,84.7c-7.4,0.3-10.3-28.6-13.1-38.2
					C952.5,570.2,934.1,538.3,947.9,539.6z"/>
			</g>
		</g>
		<g>
			<radialGradient id="SVGID_30_" cx="719.7968" cy="466.3127" r="275.9236" gradientUnits="userSpaceOnUse">
				<stop  offset="0" style="stop-color:#AEEF2E"/>
				<stop  offset="6.491959e-02" style="stop-color:#9DE42A"/>
				<stop  offset="0.1915" style="stop-color:#83D323"/>
				<stop  offset="0.3313" style="stop-color:#6FC61E"/>
				<stop  offset="0.4894" style="stop-color:#61BC1B"/>
				<stop  offset="0.6811" style="stop-color:#59B719"/>
				<stop  offset="1" style="stop-color:#56B518"/>
			</radialGradient>
			<path class="st35" d="M825.7,493.9c-11.2-15.2-3.2-11-23.5-17.2c1.6-0.3-20.7-5.2-5.5-6.5c33.7-2.9,14.3-2.7,44.6-2.7
				c-44-29.3-54.6-13.9-96-17.1c-36.4-2.8-50.4-15.8-73.4-15.8c0,10.4,1,16.1-26.3,19.4c-15.6,1.9-45,1.7-55.9-1.2
				c-14.7-4-46.2,0-71,14.7c29.7,3,50.3-7.1,63.7,0c5.9,3.2,12.1,5.4,18.6,7c2.6,0.7,3.2,4.1,1,5.7c0,0,0,0-0.1,0
				c-30.8,21.4-43.2,30.3-73.2,47.5c56.6,7.1,58.9-40.7,132.5-12.1c36.1,14,37.7,24.6,39.5,46.7c8-16.2,31.6-41.3,58.8-49.8
				c15.6-4.8,43.1,0.6,54,8.1c14.7,10.2,40,17.3,59.2,22C855.2,513.8,839.1,512,825.7,493.9z"/>
			<linearGradient id="SVGID_31_" gradientUnits="userSpaceOnUse" x1="677.7018" y1="402.5546" x2="727.6774" y2="413.7638">
				<stop  offset="0" style="stop-color:#56B518"/>
				<stop  offset="0.3189" style="stop-color:#59B719"/>
				<stop  offset="0.5106" style="stop-color:#61BC1B"/>
				<stop  offset="0.6687" style="stop-color:#6FC61E"/>
				<stop  offset="0.8085" style="stop-color:#83D323"/>
				<stop  offset="0.9351" style="stop-color:#9DE42A"/>
				<stop  offset="1" style="stop-color:#AEEF2E"/>
			</linearGradient>
			<path class="st36" d="M700.5,473.7c-1.5-0.1-2.7-0.9-3.1-2.1c-6.3-20,6.6-53.9,13.6-74c6.8-19.6,3.8-25.1,12.6-44.5
				c0.8-1.8,3.1-2.9,5.3-2.7l18.4,1.8c2.5,0.2,3.8,2.2,2.9,4.1c-9.2,19.5-5.8,25.1-12.7,44.8c-6.5,18.8-18.9,48.8-13.9,69.7
				c0.6,2.4-2.4,4.9-5.5,4.6L700.5,473.7z"/>
		</g>
	</g>
</g>
</svg>
